<svg id="svg" version="1.1" width="400" height="400" viewBox="0 0 400 400" xmlns="http://www.w3.org/2000/svg" xmlns:xlink="http://www.w3.org/1999/xlink" ><g id="svgg"><path id="path0" d="M0.000 200.000 L 0.000 400.000 200.000 400.000 L 400.000 400.000 400.000 200.000 L 400.000 0.000 200.000 0.000 L 0.000 0.000 0.000 200.000 M205.227 8.585 C 211.508 8.813,217.999 9.925,220.467 11.197 C 222.797 12.397,227.417 13.033,240.800 13.995 C 250.949 14.725,254.613 15.754,257.449 18.672 C 258.867 20.131,259.530 20.497,261.282 20.788 C 273.970 22.895,276.050 23.586,279.073 26.697 C 280.670 28.339,284.053 30.000,285.803 30.000 C 288.333 30.000,294.161 33.059,295.150 34.906 C 295.703 35.940,297.515 36.982,301.128 38.343 C 304.257 39.522,304.908 40.069,306.116 42.535 C 307.201 44.753,307.231 44.775,310.105 45.619 C 313.967 46.754,316.120 48.048,319.004 50.967 C 320.326 52.305,322.514 53.986,323.865 54.703 C 326.321 56.005,328.515 58.071,328.972 59.513 C 329.273 60.460,331.755 62.464,333.508 63.174 C 334.942 63.755,336.584 65.488,337.029 66.892 C 337.435 68.172,339.583 70.741,340.487 71.028 C 341.659 71.400,343.968 73.573,344.663 74.959 C 345.884 77.394,348.080 80.308,349.102 80.849 C 350.674 81.683,353.102 85.761,354.232 89.469 C 355.237 92.761,355.253 92.785,357.321 93.805 C 360.035 95.145,360.433 95.666,362.168 100.143 C 363.401 103.326,363.862 104.067,365.133 104.908 C 367.041 106.171,368.894 109.623,369.773 113.553 C 370.734 117.849,371.415 119.201,373.566 121.083 C 376.079 123.281,376.928 125.581,378.395 134.168 L 379.538 140.859 381.375 142.723 C 384.376 145.767,385.284 149.048,386.018 159.510 C 386.695 169.140,387.813 177.261,388.709 179.048 C 392.650 186.906,392.465 213.223,388.404 222.518 C 387.607 224.343,386.660 231.543,386.001 240.800 C 385.279 250.935,384.248 254.612,381.331 257.447 L 379.569 259.158 378.355 266.079 C 376.946 274.111,376.367 275.637,373.632 278.529 C 371.347 280.944,370.544 282.600,369.713 286.600 C 368.981 290.129,367.035 293.839,365.335 294.950 C 364.034 295.801,362.568 298.330,361.596 301.400 C 360.819 303.851,359.861 304.943,357.444 306.126 C 355.478 307.089,355.178 307.401,354.774 308.905 C 353.591 313.316,352.298 315.655,349.387 318.653 C 347.797 320.290,345.933 322.685,345.245 323.976 C 343.987 326.337,341.906 328.522,340.487 328.972 C 339.583 329.259,337.435 331.828,337.029 333.108 C 336.584 334.512,334.942 336.245,333.508 336.826 C 331.755 337.536,329.273 339.540,328.972 340.487 C 328.517 341.923,326.325 343.993,323.882 345.295 C 322.541 346.010,320.544 347.496,319.445 348.598 C 316.335 351.714,314.078 353.136,310.489 354.238 C 307.283 355.223,307.151 355.312,306.333 357.053 C 305.192 359.481,303.642 360.942,301.546 361.564 C 298.477 362.476,295.830 363.989,294.950 365.335 C 293.839 367.035,290.129 368.981,286.600 369.713 C 282.517 370.561,280.937 371.353,278.647 373.703 C 276.102 376.314,274.664 376.841,265.878 378.388 L 259.157 379.571 257.446 381.332 C 254.637 384.222,249.433 385.554,238.400 386.206 C 231.736 386.600,222.614 387.869,221.204 388.598 C 213.687 392.485,186.670 392.611,179.187 388.793 C 177.200 387.780,171.744 386.982,161.400 386.193 C 148.666 385.221,144.846 384.219,142.328 381.189 L 141.000 379.591 134.158 378.404 C 125.471 376.897,123.246 376.068,121.062 373.524 C 119.311 371.485,117.080 370.372,113.600 369.800 C 109.955 369.201,105.872 367.002,104.846 365.086 C 104.305 364.074,101.528 362.523,98.600 361.596 C 96.127 360.813,94.939 359.771,93.820 357.406 C 92.801 355.252,92.764 355.223,89.896 354.371 C 85.712 353.127,84.289 352.289,81.185 349.240 C 79.662 347.744,77.350 345.952,76.047 345.257 C 73.666 343.988,71.479 341.910,71.028 340.487 C 70.727 339.540,68.245 337.536,66.492 336.826 C 65.058 336.245,63.416 334.512,62.971 333.108 C 62.565 331.828,60.417 329.259,59.513 328.972 C 58.075 328.516,56.006 326.324,54.703 323.876 C 53.986 322.530,52.219 320.248,50.776 318.805 C 48.263 316.290,45.600 311.965,45.600 310.396 C 45.600 308.519,44.673 307.117,42.941 306.375 C 40.366 305.271,39.524 304.215,37.857 299.997 C 36.585 296.778,36.105 296.017,34.704 295.000 C 32.684 293.534,31.099 290.535,30.158 286.400 C 29.205 282.211,28.583 280.906,26.636 279.014 C 23.586 276.050,22.886 273.921,20.775 261.205 C 20.485 259.458,20.133 258.763,19.055 257.805 C 15.499 254.646,14.784 251.793,13.590 236.000 C 12.987 228.017,12.141 222.644,11.195 220.790 C 7.272 213.101,7.356 187.576,11.333 178.800 C 12.418 176.406,12.923 173.105,13.599 164.000 C 14.765 148.278,15.497 145.355,19.061 142.191 C 20.377 141.022,20.456 140.780,21.419 135.003 C 22.966 125.727,23.690 123.809,26.613 121.243 C 28.322 119.742,29.496 117.262,30.272 113.511 C 31.123 109.400,32.165 107.364,34.701 104.856 C 36.641 102.938,37.188 102.060,38.200 99.237 C 39.472 95.688,40.367 94.670,43.261 93.476 C 44.065 93.144,44.820 92.542,44.938 92.137 C 45.056 91.731,45.361 90.593,45.617 89.607 C 46.407 86.556,47.922 84.074,50.757 81.188 C 52.254 79.664,54.048 77.350,54.743 76.047 C 56.012 73.666,58.090 71.479,59.513 71.028 C 60.417 70.741,62.565 68.172,62.971 66.892 C 63.416 65.488,65.058 63.755,66.492 63.174 C 68.245 62.464,70.727 60.460,71.028 59.513 C 71.479 58.090,73.666 56.012,76.047 54.743 C 77.350 54.048,79.664 52.254,81.188 50.757 C 82.713 49.259,84.825 47.599,85.880 47.068 C 87.846 46.081,88.166 45.966,91.095 45.210 C 92.615 44.817,92.898 44.543,93.840 42.553 C 95.019 40.061,96.032 39.295,99.980 37.916 C 102.077 37.183,103.031 36.545,104.758 34.724 C 107.154 32.198,109.157 31.169,113.400 30.288 C 117.401 29.456,119.056 28.652,121.471 26.368 C 124.406 23.592,126.363 22.847,134.127 21.545 L 140.854 20.418 142.527 18.699 C 145.713 15.424,147.979 14.839,161.400 13.819 C 173.333 12.912,176.237 12.480,179.267 11.161 C 180.734 10.523,182.319 10.000,182.790 10.000 C 183.261 10.000,184.400 9.817,185.323 9.594 C 187.811 8.990,195.962 8.115,197.800 8.253 C 198.680 8.319,202.022 8.468,205.227 8.585 " stroke="none" fill="#ffffff" fill-rule="evenodd"></path><path id="path1" d="M164.800 26.358 C 161.911 26.638,158.949 27.379,158.279 27.990 C 156.203 29.882,176.407 30.000,181.200 28.123 C 183.396 27.263,170.161 25.839,164.800 26.358 M225.200 26.415 C 221.002 27.107,217.803 27.908,218.400 28.119 C 222.691 29.631,237.177 30.010,240.600 28.700 L 242.200 28.088 241.150 27.673 C 237.917 26.395,229.398 25.723,225.200 26.415 M136.898 34.713 C 133.073 35.894,132.927 36.125,135.500 36.931 C 138.907 37.999,139.901 38.027,142.627 37.132 C 145.724 36.116,145.714 35.679,142.567 34.547 L 140.196 33.694 136.898 34.713 M257.430 34.551 C 251.380 36.719,259.174 38.835,265.537 36.751 C 267.399 36.142,266.607 35.707,260.199 33.819 C 259.979 33.755,258.733 34.084,257.430 34.551 M122.600 42.425 C 121.940 42.594,120.086 42.945,118.480 43.205 C 113.658 43.988,115.614 45.141,121.800 45.164 C 124.542 45.174,126.000 44.654,126.000 43.666 C 126.000 42.865,123.891 42.096,122.600 42.425 M274.900 42.660 C 272.838 44.121,274.299 45.211,278.274 45.177 C 284.807 45.122,286.127 44.047,280.914 43.029 C 278.981 42.651,277.040 42.270,276.600 42.182 C 276.160 42.094,275.395 42.309,274.900 42.660 M105.900 50.677 C 103.550 51.985,103.541 52.242,105.811 53.246 C 107.740 54.099,108.466 54.024,109.901 52.824 C 110.975 51.925,110.782 51.198,109.226 50.279 C 107.827 49.453,108.174 49.411,105.900 50.677 M290.500 50.446 C 287.763 52.199,290.683 54.694,293.907 53.357 C 296.352 52.344,296.374 51.931,294.056 50.669 C 291.725 49.400,292.096 49.424,290.500 50.446 M91.280 59.280 C 89.603 60.957,91.536 62.044,94.407 61.039 C 97.321 60.018,97.369 59.788,94.780 59.233 C 92.229 58.686,91.869 58.691,91.280 59.280 M304.900 59.258 C 302.645 59.774,302.750 60.043,305.593 61.039 C 307.945 61.863,307.999 61.864,308.677 61.115 C 310.180 59.455,308.230 58.496,304.900 59.258 M83.395 66.345 C 81.667 67.792,81.533 68.207,82.427 69.343 C 83.499 70.706,84.060 70.674,85.795 69.151 C 87.353 67.782,87.252 67.261,85.225 66.213 C 84.331 65.751,84.083 65.769,83.395 66.345 M314.470 66.416 C 312.879 67.383,312.870 68.051,314.431 69.364 C 315.979 70.668,316.534 70.664,317.571 69.346 C 318.611 68.024,318.610 68.022,317.041 66.722 L 315.740 65.644 314.470 66.416 M74.675 74.722 C 73.349 76.105,73.345 76.333,74.620 77.708 C 75.772 78.951,76.524 78.785,77.947 76.977 C 78.874 75.799,78.732 75.109,77.380 74.224 C 76.103 73.387,75.922 73.421,74.675 74.722 M322.217 74.782 L 321.084 75.964 322.560 77.440 L 324.036 78.916 325.218 77.783 C 326.681 76.381,326.688 76.025,325.278 74.675 C 323.866 73.322,323.607 73.331,322.217 74.782 M66.722 82.959 L 65.644 84.260 66.416 85.530 C 67.383 87.121,68.051 87.130,69.364 85.569 C 70.668 84.021,70.664 83.466,69.346 82.429 C 68.024 81.389,68.022 81.390,66.722 82.959 M330.667 82.419 C 329.288 83.504,329.322 84.056,330.881 85.832 L 332.163 87.291 333.081 86.223 C 334.291 84.818,334.240 83.980,332.867 82.664 L 331.734 81.579 330.667 82.419 M59.280 91.280 C 58.691 91.869,58.686 92.229,59.233 94.780 C 59.788 97.369,60.018 97.321,61.039 94.407 C 62.044 91.536,60.957 89.603,59.280 91.280 M339.000 91.271 C 338.560 91.517,338.153 91.754,338.095 91.797 C 338.037 91.841,338.328 92.669,338.741 93.638 C 339.154 94.607,339.611 95.741,339.755 96.157 C 340.122 97.212,340.333 96.863,340.793 94.436 C 341.362 91.435,340.724 90.308,339.000 91.271 M50.640 105.998 C 49.081 108.861,51.041 112.297,52.877 109.920 C 54.028 108.428,54.092 107.723,53.246 105.811 C 52.235 103.525,51.975 103.544,50.640 105.998 M346.754 105.811 C 345.908 107.723,345.972 108.428,347.123 109.920 C 348.959 112.297,350.919 108.861,349.360 105.998 C 348.025 103.544,347.765 103.525,346.754 105.811 M43.250 118.081 C 42.387 123.039,42.303 124.271,42.768 125.140 C 43.909 127.271,45.178 125.502,45.164 121.800 C 45.142 115.873,44.016 113.684,43.250 118.081 M355.412 115.980 C 354.823 116.934,354.663 123.997,355.208 125.015 C 355.882 126.275,356.694 126.271,357.271 125.004 C 358.094 123.197,356.309 114.529,355.412 115.980 M81.449 123.095 C 78.828 123.782,78.978 124.049,82.400 124.784 C 84.208 125.172,84.885 125.152,86.200 124.673 L 87.800 124.089 85.867 123.245 C 84.804 122.780,83.904 122.418,83.867 122.440 C 83.830 122.462,82.742 122.757,81.449 123.095 M34.813 136.644 C 33.864 139.841,33.889 141.202,34.942 143.723 C 35.798 145.773,36.159 145.590,37.136 142.614 C 38.027 139.902,37.998 138.904,36.931 135.500 C 36.130 132.944,35.870 133.085,34.813 136.644 M363.069 135.500 C 362.002 138.904,361.973 139.902,362.864 142.614 C 363.841 145.590,364.202 145.773,365.058 143.723 C 366.111 141.202,366.136 139.841,365.187 136.644 C 364.130 133.085,363.870 132.944,363.069 135.500 M318.800 137.221 C 316.710 137.387,267.840 137.535,210.200 137.551 C 99.203 137.582,101.738 137.542,98.048 139.308 L 97.000 139.809 96.758 148.004 C 96.542 155.315,96.602 156.589,97.320 159.800 C 98.532 165.222,98.883 225.268,97.731 230.000 C 97.127 232.479,97.000 234.665,97.000 242.593 L 97.000 252.187 98.074 252.703 C 102.318 254.741,99.095 254.689,211.168 254.551 C 274.414 254.473,316.667 254.571,319.368 254.802 L 323.800 255.182 324.939 253.891 L 326.078 252.600 326.077 196.023 L 326.077 139.446 325.021 138.123 C 324.441 137.395,323.659 136.827,323.283 136.860 C 322.907 136.893,320.890 137.056,318.800 137.221 M313.495 144.282 C 317.224 145.457,319.756 148.735,320.786 153.719 C 321.909 159.155,319.013 161.967,311.487 162.746 C 303.323 163.592,300.523 160.705,301.614 152.568 C 302.766 143.973,305.799 141.857,313.495 144.282 M112.684 144.045 C 118.179 144.830,120.646 147.086,121.569 152.173 C 122.991 160.004,120.953 162.206,111.856 162.667 C 102.140 163.160,100.392 161.278,101.540 151.567 C 102.370 144.544,104.782 142.917,112.684 144.045 M241.573 148.388 C 244.118 148.585,247.460 148.940,249.000 149.178 C 250.540 149.416,253.812 149.853,256.271 150.151 C 261.745 150.813,263.425 151.589,264.671 154.031 C 265.972 156.580,266.564 157.050,269.658 157.990 C 272.652 158.900,273.586 159.854,274.403 162.836 C 274.885 164.595,275.694 165.318,277.879 165.941 C 280.076 166.567,280.961 167.771,281.819 171.299 C 283.026 176.265,283.893 178.361,285.190 179.453 C 288.590 182.314,289.365 185.594,289.385 197.200 C 289.404 208.522,288.471 211.902,284.803 213.798 C 283.647 214.396,282.846 216.309,281.588 221.482 C 281.046 223.711,279.497 225.479,277.585 226.052 C 275.667 226.627,274.679 227.697,274.061 229.871 C 273.467 231.959,271.847 233.355,269.089 234.157 C 266.636 234.870,265.893 235.517,264.680 238.000 C 263.351 240.718,261.588 241.408,254.000 242.180 C 250.590 242.527,246.818 243.072,245.619 243.391 C 243.543 243.943,232.687 243.672,231.670 243.043 C 231.490 242.932,228.583 242.565,225.211 242.227 C 217.433 241.448,216.143 240.900,214.515 237.681 C 213.393 235.461,213.289 235.376,210.602 234.499 C 207.376 233.446,205.762 232.066,205.124 229.817 C 204.532 227.730,204.393 227.592,202.125 226.836 C 199.807 226.063,198.643 224.502,197.977 221.275 C 197.325 218.117,196.279 216.244,194.621 215.265 C 191.166 213.227,190.600 210.318,190.600 194.600 C 190.600 179.931,191.152 177.677,195.150 176.021 C 196.400 175.503,197.231 173.928,197.990 170.640 C 198.856 166.883,199.631 166.004,202.907 165.055 C 204.379 164.629,204.583 164.400,205.208 162.484 C 206.231 159.346,206.895 158.807,211.800 157.133 C 213.045 156.709,213.578 156.220,214.200 154.934 C 216.007 151.200,217.199 150.613,224.228 149.995 C 229.944 149.493,234.724 148.636,235.363 147.997 C 235.591 147.769,236.040 147.683,236.362 147.807 C 236.683 147.930,239.028 148.192,241.573 148.388 M150.200 153.171 C 151.952 154.190,152.937 155.211,155.432 158.600 C 156.014 159.390,156.030 159.388,156.711 158.400 C 160.303 153.187,163.687 151.461,165.958 153.681 C 169.382 157.028,170.442 162.267,169.407 170.712 C 169.188 172.498,171.007 174.602,173.103 174.988 C 179.566 176.177,179.549 176.124,179.622 196.321 C 179.694 216.420,179.719 216.339,172.899 218.014 C 170.353 218.639,170.127 219.271,169.829 226.600 C 169.406 237.043,169.072 238.236,165.990 240.322 C 163.614 241.932,159.061 240.428,157.088 237.381 C 156.211 236.027,155.600 235.623,155.600 236.399 C 155.600 238.727,149.672 241.708,146.770 240.838 C 143.329 239.807,142.501 237.325,142.124 226.912 C 141.832 218.843,141.723 218.610,137.695 217.490 C 131.793 215.850,131.730 215.609,132.004 195.789 C 132.224 179.818,132.227 179.774,133.174 178.242 C 134.189 176.600,136.598 175.224,138.486 175.209 C 139.130 175.204,140.170 174.675,141.042 173.909 L 142.513 172.618 142.273 168.144 C 141.877 160.759,143.073 156.092,146.049 153.403 C 147.915 151.718,147.720 151.729,150.200 153.171 M82.200 158.639 C 81.320 159.169,79.548 159.992,78.261 160.469 C 73.878 162.093,73.661 165.824,77.860 167.380 C 78.927 167.775,80.778 168.617,81.973 169.250 L 84.146 170.402 85.033 169.569 C 85.520 169.111,86.399 167.667,86.985 166.361 L 88.052 163.985 87.003 161.694 C 86.022 159.552,84.556 157.552,84.030 157.638 C 83.904 157.658,83.080 158.109,82.200 158.639 M27.918 158.227 C 26.143 161.240,25.696 172.527,27.097 179.000 C 27.995 183.152,28.078 183.047,29.009 176.600 C 30.055 169.352,29.260 155.949,27.918 158.227 M371.226 159.890 C 369.989 163.517,370.355 175.611,371.894 182.000 C 372.172 183.152,372.268 182.729,373.315 175.774 C 374.492 167.960,372.816 155.224,371.226 159.890 M232.162 162.002 C 226.794 163.587,226.534 163.895,229.421 165.252 C 231.838 166.388,233.045 168.073,233.846 171.427 C 235.178 177.008,235.378 177.361,237.780 178.356 C 241.408 179.860,241.125 181.829,237.026 183.591 C 231.405 186.008,228.732 192.048,230.206 199.000 C 230.533 200.540,230.800 201.828,230.800 201.862 C 230.800 201.896,231.427 202.674,232.192 203.591 C 234.235 206.035,234.541 207.660,234.242 214.461 C 233.820 224.078,235.008 226.801,240.774 229.437 L 243.974 230.900 247.587 229.561 C 251.766 228.012,251.697 228.117,249.449 226.754 C 247.427 225.528,246.207 223.325,245.583 219.774 C 244.938 216.106,244.539 215.443,241.977 213.785 C 237.241 210.720,239.599 204.176,245.639 203.622 C 249.455 203.272,249.840 202.789,250.192 197.902 C 250.718 190.599,250.400 187.900,248.967 187.530 C 246.190 186.813,245.411 184.459,245.528 177.137 C 245.651 169.482,243.987 165.961,238.700 162.682 C 235.676 160.807,236.071 160.848,232.162 162.002 M265.536 171.369 C 261.128 172.288,260.177 173.432,255.792 183.092 C 255.170 184.462,254.152 186.071,253.530 186.667 C 251.250 188.851,252.495 190.174,257.170 190.536 L 260.140 190.765 261.770 189.050 C 262.667 188.106,263.896 186.581,264.501 185.660 C 265.107 184.739,266.216 183.693,266.966 183.335 C 269.146 182.296,269.775 180.407,269.440 175.906 C 269.084 171.128,268.720 170.706,265.536 171.369 M209.933 178.811 C 208.847 179.384,208.203 180.159,207.457 181.788 C 206.703 183.434,206.097 184.157,205.056 184.654 C 204.284 185.022,203.336 185.930,202.931 186.688 C 201.758 188.885,202.599 189.231,208.990 189.174 C 213.114 189.138,214.862 189.303,217.378 189.968 C 223.936 191.700,226.432 190.113,225.416 184.858 C 225.091 183.176,224.775 181.367,224.713 180.838 C 224.424 178.370,213.582 176.883,209.933 178.811 M82.000 183.791 C 81.010 184.316,79.360 184.952,78.333 185.205 C 74.809 186.072,75.035 184.436,75.144 208.316 C 75.271 236.083,75.067 235.081,80.980 236.957 L 84.161 237.966 85.436 237.178 C 87.267 236.046,87.254 236.220,87.470 210.745 C 87.686 185.418,87.780 186.573,85.279 183.900 C 84.056 182.592,84.248 182.599,82.000 183.791 M217.713 202.580 C 216.352 203.571,215.052 204.730,214.824 205.155 C 214.596 205.580,213.798 206.307,213.049 206.769 C 210.093 208.597,208.767 218.504,211.155 220.923 C 212.199 221.982,214.745 220.899,216.222 218.768 C 216.821 217.904,217.909 216.827,218.640 216.375 C 220.587 215.172,222.329 212.767,223.268 209.985 C 223.723 208.639,224.712 206.729,225.466 205.741 C 228.631 201.594,222.502 199.096,217.713 202.580 M255.477 202.017 C 252.699 202.484,251.562 203.802,252.837 205.077 C 253.078 205.318,253.776 207.019,254.390 208.857 L 255.506 212.200 257.853 213.076 C 263.985 215.365,270.058 214.109,271.161 210.324 C 271.893 207.812,273.327 205.821,274.964 205.044 C 277.765 203.715,277.198 203.539,266.400 202.390 C 258.408 201.539,258.338 201.537,255.477 202.017 M26.997 221.462 C 25.763 228.342,26.426 241.600,28.004 241.600 C 29.466 241.600,30.068 230.753,29.014 223.400 C 28.039 216.604,27.893 216.464,26.997 221.462 M371.593 218.900 C 371.589 219.615,371.320 221.820,370.995 223.800 C 369.913 230.385,370.588 242.273,371.995 241.403 C 373.617 240.400,374.207 228.847,372.991 221.900 C 372.255 217.695,371.607 216.305,371.593 218.900 M312.600 229.410 C 320.484 230.140,323.066 235.139,319.353 242.487 C 315.957 249.209,305.936 250.878,303.005 245.209 C 298.962 237.392,302.284 228.109,308.800 229.013 C 309.350 229.089,311.060 229.268,312.600 229.410 M118.713 230.455 C 123.880 232.956,122.669 244.206,116.915 247.158 C 114.958 248.162,107.811 248.589,105.803 247.822 C 100.371 245.748,99.291 231.693,104.412 229.732 C 106.702 228.855,116.423 229.346,118.713 230.455 M34.942 256.277 C 33.853 258.884,33.828 260.299,34.815 263.447 C 35.788 266.550,36.329 266.948,36.889 264.974 C 37.962 261.191,38.000 260.017,37.136 257.385 C 36.159 254.410,35.798 254.227,34.942 256.277 M362.868 257.373 C 361.973 260.099,362.001 261.093,363.069 264.500 C 363.865 267.040,364.132 266.911,365.143 263.500 C 366.169 260.037,366.181 259.157,365.233 256.818 C 364.219 254.318,363.842 254.407,362.868 257.373 M131.500 265.142 C 123.430 267.431,123.604 271.743,131.800 272.583 C 133.120 272.718,135.488 273.024,137.063 273.263 C 139.867 273.689,139.954 273.676,141.345 272.615 C 146.449 268.722,158.149 270.030,162.176 274.945 C 164.013 277.186,164.175 277.206,165.155 275.300 C 168.832 268.152,183.512 268.343,187.332 275.589 L 188.065 276.978 189.732 275.093 C 192.240 272.259,194.688 271.329,201.552 270.605 C 207.225 270.006,208.248 269.747,209.131 268.683 C 209.701 267.997,209.006 267.299,206.504 266.040 C 204.956 265.262,134.070 264.413,131.500 265.142 M43.041 274.355 C 42.133 275.358,42.128 276.013,43.001 280.718 C 43.736 284.683,44.386 285.324,44.876 282.567 C 45.439 279.395,45.248 275.348,44.491 274.413 L 43.781 273.537 43.041 274.355 M355.369 274.591 C 354.799 275.462,354.722 276.262,354.909 279.393 C 355.133 283.157,355.705 285.247,356.170 284.000 C 356.811 282.277,357.829 276.031,357.579 275.355 C 356.984 273.745,356.119 273.447,355.369 274.591 M50.404 290.593 L 49.543 291.987 50.641 294.004 C 51.932 296.376,52.340 296.361,53.357 293.907 C 54.721 290.617,52.163 287.747,50.404 290.593 M346.775 290.640 C 345.864 292.115,346.516 295.440,347.800 295.866 C 348.559 296.118,350.485 292.106,350.021 291.239 C 348.778 288.916,347.937 288.761,346.775 290.640 M59.197 305.416 C 58.577 308.702,59.177 309.831,60.933 308.681 L 61.913 308.038 61.045 305.641 C 59.867 302.387,59.771 302.375,59.197 305.416 M339.879 303.200 C 339.743 303.530,339.280 304.751,338.850 305.913 L 338.067 308.026 339.036 308.660 C 340.194 309.419,341.224 308.834,341.162 307.451 C 341.086 305.766,340.129 302.594,339.879 303.200 M66.872 313.799 C 65.716 315.269,65.772 316.032,67.133 317.336 L 68.266 318.421 69.333 317.581 C 70.724 316.487,70.679 315.893,69.072 314.139 L 67.744 312.690 66.872 313.799 M330.881 314.168 C 329.322 315.944,329.288 316.496,330.667 317.581 L 331.734 318.421 332.867 317.336 C 334.240 316.020,334.291 315.182,333.081 313.777 L 332.163 312.709 330.881 314.168 M74.582 322.182 C 73.313 323.451,73.345 324.006,74.762 325.364 C 77.154 327.656,79.885 324.958,77.581 322.580 C 75.987 320.936,75.847 320.917,74.582 322.182 M323.051 322.031 C 321.214 323.476,321.045 324.224,322.292 325.380 C 323.681 326.668,324.004 326.657,325.325 325.278 C 326.650 323.895,326.655 323.666,325.384 322.296 C 324.170 320.986,324.353 321.007,323.051 322.031 M82.419 330.667 L 81.579 331.734 82.664 332.867 C 83.956 334.216,84.732 334.283,86.146 333.171 C 87.519 332.091,87.485 331.906,85.678 330.654 C 83.782 329.340,83.462 329.341,82.419 330.667 M314.168 330.881 L 312.709 332.163 313.777 333.081 C 315.182 334.291,316.020 334.240,317.336 332.867 L 318.421 331.734 317.581 330.667 C 316.496 329.288,315.944 329.322,314.168 330.881 M91.410 338.907 C 90.151 340.705,91.431 341.458,94.619 340.796 C 96.587 340.388,97.649 339.600,96.233 339.600 C 95.921 339.600,94.846 339.248,93.843 338.818 L 92.020 338.037 91.410 338.907 M305.530 338.965 C 302.409 340.122,302.400 340.234,305.386 340.797 C 308.839 341.449,310.093 340.687,308.500 338.906 C 307.806 338.130,307.781 338.130,305.530 338.965 M105.700 346.789 C 103.535 347.772,103.565 348.036,105.990 349.356 C 108.076 350.491,108.709 350.433,110.169 348.974 C 112.003 347.140,108.596 345.475,105.700 346.789 M290.500 346.846 C 288.773 347.952,288.973 348.808,291.239 350.021 C 292.024 350.441,295.999 348.654,296.000 347.880 C 296.001 346.579,292.071 345.840,290.500 346.846 M117.600 355.074 C 114.442 355.596,115.141 356.167,120.106 357.122 C 123.948 357.862,124.017 357.861,125.286 357.089 L 126.572 356.307 125.642 355.553 C 124.732 354.817,120.636 354.573,117.600 355.074 M274.414 355.503 L 273.428 356.307 274.729 357.099 C 276.016 357.881,276.073 357.882,279.715 357.142 C 285.946 355.876,285.844 355.325,279.306 354.933 C 275.785 354.721,275.303 354.778,274.414 355.503 M138.400 362.276 C 136.667 362.566,133.600 363.651,133.600 363.974 C 133.600 364.535,139.636 366.099,140.966 365.883 C 142.679 365.605,145.200 364.529,145.200 364.077 C 145.200 363.732,140.313 361.938,139.692 362.054 C 139.531 362.084,138.950 362.184,138.400 362.276 M257.300 362.869 C 254.409 363.844,254.240 364.207,256.277 365.058 C 258.798 366.111,260.159 366.136,263.356 365.187 C 266.959 364.118,267.092 363.815,264.300 363.039 C 260.605 362.012,259.890 361.995,257.300 362.869 M161.000 371.009 C 159.900 371.315,158.854 371.573,158.676 371.582 C 157.668 371.637,159.134 372.395,161.295 372.935 C 165.226 373.919,171.185 374.089,175.800 373.349 C 183.034 372.190,183.133 372.167,182.000 371.898 C 175.815 370.432,164.762 369.965,161.000 371.009 M221.800 371.217 C 216.515 372.057,216.603 372.025,218.600 372.404 C 228.729 374.329,240.087 374.125,241.403 371.995 C 242.345 370.470,229.665 369.967,221.800 371.217 " stroke="none" fill="#bc6e01" fill-rule="evenodd"></path><path id="path2" d="M191.400 19.991 C 189.860 20.174,185.900 20.711,182.600 21.184 C 179.300 21.656,173.360 22.199,169.400 22.390 C 160.331 22.826,151.672 25.004,146.087 28.252 C 145.028 28.868,142.205 29.712,138.687 30.463 C 131.816 31.931,131.442 32.082,127.400 35.018 C 124.571 37.072,123.706 37.467,119.939 38.421 C 115.261 39.606,114.997 39.748,111.297 43.078 C 109.435 44.753,107.875 45.719,105.525 46.653 C 102.144 47.996,99.404 49.721,96.400 52.398 C 95.410 53.280,93.896 54.196,93.035 54.434 C 91.891 54.750,90.475 55.853,87.776 58.533 C 85.744 60.550,83.212 62.740,82.149 63.400 C 81.048 64.083,79.569 65.530,78.713 66.761 C 77.788 68.091,76.227 69.581,74.649 70.639 C 72.824 71.864,71.672 73.025,70.641 74.679 C 69.708 76.174,68.385 77.569,66.922 78.600 C 65.554 79.564,64.004 81.161,63.025 82.615 C 62.131 83.943,59.954 86.463,58.187 88.215 C 55.930 90.453,54.814 91.896,54.433 93.069 C 54.136 93.987,52.743 96.115,51.338 97.798 C 48.698 100.961,47.440 103.127,46.201 106.646 C 45.745 107.941,44.677 109.556,43.292 111.046 C 40.061 114.521,39.363 115.805,38.427 120.003 C 37.666 123.413,37.326 124.158,35.137 127.203 C 32.046 131.504,31.828 132.041,30.556 138.472 C 29.832 142.131,29.094 144.598,28.188 146.393 C 24.883 152.938,22.400 162.350,22.400 168.333 C 22.400 172.167,21.537 181.045,20.177 191.200 C 19.459 196.558,19.592 208.102,20.419 212.200 C 21.245 216.295,22.396 227.537,22.398 231.522 C 22.401 237.881,24.552 246.171,28.146 253.672 C 29.069 255.599,29.897 258.330,30.568 261.657 C 31.912 268.328,32.412 269.415,36.447 274.458 C 36.925 275.055,37.781 277.460,38.410 279.972 C 39.573 284.612,40.001 285.364,44.023 289.832 C 44.831 290.730,45.877 292.494,46.347 293.751 C 47.717 297.411,48.630 298.957,51.341 302.206 C 52.744 303.886,54.140 306.011,54.442 306.926 C 54.822 308.078,55.979 309.576,58.196 311.786 C 59.958 313.543,62.131 316.065,63.025 317.390 C 64.000 318.835,65.559 320.440,66.922 321.400 C 68.394 322.437,69.708 323.826,70.658 325.348 C 71.721 327.053,72.790 328.125,74.561 329.263 C 76.111 330.259,77.583 331.653,78.600 333.090 C 79.564 334.451,81.167 335.997,82.632 336.979 C 83.969 337.875,86.490 340.047,88.233 341.807 C 90.438 344.033,91.910 345.174,93.071 345.557 C 93.988 345.860,96.115 347.257,97.798 348.662 C 101.059 351.384,103.284 352.658,106.763 353.798 C 108.291 354.298,109.579 355.138,111.147 356.657 C 114.470 359.876,115.834 360.637,119.986 361.593 C 124.389 362.606,124.349 362.587,127.891 365.270 C 131.376 367.910,131.931 368.125,138.926 369.545 C 142.467 370.264,145.222 371.044,145.892 371.517 C 150.130 374.513,161.891 377.434,171.000 377.753 C 174.740 377.884,179.780 378.265,182.200 378.600 C 197.489 380.714,203.464 380.779,215.573 378.964 C 219.448 378.383,224.940 377.882,228.800 377.757 C 238.053 377.457,246.083 375.533,253.800 371.767 C 255.708 370.836,258.415 370.028,262.300 369.231 C 268.178 368.025,269.696 367.314,274.469 363.536 C 275.063 363.066,277.520 362.190,280.004 361.564 C 284.686 360.384,285.931 359.658,289.564 355.989 C 290.457 355.087,291.852 354.252,293.206 353.808 C 296.718 352.658,298.819 351.449,302.216 348.624 C 304.045 347.104,306.049 345.802,306.925 345.566 C 308.019 345.272,309.366 344.231,311.693 341.882 C 313.477 340.081,316.031 337.875,317.368 336.979 C 318.857 335.981,320.420 334.466,321.400 333.071 C 322.280 331.817,323.630 330.415,324.400 329.956 C 326.406 328.759,328.328 326.875,329.659 324.800 C 330.295 323.810,331.832 322.280,333.076 321.400 C 334.349 320.498,335.874 318.948,336.568 317.849 C 337.246 316.776,339.372 314.313,341.293 312.375 C 343.746 309.903,345.081 308.187,345.775 306.619 C 346.318 305.390,347.766 303.202,348.993 301.756 C 351.371 298.953,352.683 296.642,353.752 293.374 C 354.131 292.216,355.099 290.615,356.013 289.635 C 359.997 285.362,360.446 284.597,361.442 280.384 C 362.550 275.697,362.528 275.743,365.409 271.927 C 367.851 268.692,368.442 267.101,369.613 260.618 C 370.118 257.819,370.819 255.434,371.553 254.018 C 375.341 246.704,377.466 238.112,377.742 229.000 C 377.851 225.385,378.384 219.407,378.968 215.263 C 380.819 202.110,380.770 199.010,378.415 180.400 C 377.984 176.990,377.620 171.950,377.606 169.200 C 377.572 162.272,374.339 149.884,371.525 145.904 C 371.063 145.249,370.205 142.219,369.398 138.392 C 367.994 131.732,367.383 130.391,363.536 125.531 C 363.066 124.937,362.190 122.480,361.564 119.996 C 360.384 115.314,359.658 114.069,355.989 110.436 C 355.087 109.543,354.252 108.148,353.808 106.794 C 352.658 103.283,351.390 101.067,348.662 97.798 C 347.257 96.115,345.864 93.987,345.565 93.069 C 345.181 91.885,343.973 90.339,341.412 87.750 C 339.425 85.742,337.246 83.222,336.568 82.150 C 335.875 81.053,334.347 79.500,333.076 78.600 C 331.832 77.720,330.295 76.190,329.659 75.200 C 328.328 73.125,326.406 71.241,324.400 70.044 C 323.630 69.585,322.280 68.183,321.400 66.929 C 320.430 65.548,318.849 64.010,317.385 63.025 C 316.057 62.131,313.537 59.953,311.785 58.185 C 309.493 55.872,308.145 54.836,306.979 54.492 C 306.032 54.214,304.118 52.953,302.379 51.464 C 299.446 48.952,296.103 46.997,293.042 46.005 C 292.185 45.727,290.475 44.575,289.242 43.444 C 285.658 40.158,284.636 39.599,279.972 38.375 C 276.327 37.419,275.168 36.917,273.282 35.475 C 269.187 32.345,267.744 31.723,262.004 30.610 C 258.227 29.877,255.729 29.141,253.677 28.153 C 246.209 24.562,237.891 22.401,231.522 22.398 C 227.503 22.396,216.205 21.235,212.200 20.411 C 209.546 19.865,194.941 19.570,191.400 19.991 M178.400 27.154 C 182.271 27.990,182.137 28.122,176.552 28.979 C 169.343 30.085,156.730 29.402,158.279 27.990 C 160.389 26.066,171.271 25.613,178.400 27.154 M238.550 26.856 C 239.402 27.077,240.572 27.445,241.150 27.673 L 242.200 28.088 240.600 28.700 C 237.177 30.010,222.691 29.631,218.400 28.119 C 217.803 27.908,221.002 27.107,225.200 26.415 C 227.770 25.991,236.304 26.273,238.550 26.856 M210.973 32.013 C 241.300 33.542,242.143 33.646,245.242 36.235 C 248.464 38.927,251.324 39.914,259.013 40.991 C 265.336 41.877,266.775 42.444,268.807 44.854 C 270.734 47.140,272.355 47.960,276.963 48.981 C 281.713 50.034,283.326 50.858,284.781 52.973 C 286.097 54.885,288.579 56.442,291.200 56.999 C 293.628 57.515,295.167 58.559,296.504 60.596 C 297.634 62.318,298.337 62.841,302.000 64.690 C 305.513 66.464,306.658 67.294,309.000 69.767 C 310.916 71.789,312.588 73.115,314.295 73.965 C 316.376 75.001,316.950 75.521,317.759 77.103 C 318.916 79.367,320.780 81.203,323.098 82.364 C 324.469 83.051,325.033 83.693,326.029 85.707 C 326.864 87.393,328.261 89.171,330.345 91.200 C 332.916 93.702,333.738 94.842,335.298 98.069 C 336.455 100.463,337.580 102.217,338.249 102.669 C 340.706 104.329,342.327 106.244,342.774 108.015 C 343.664 111.541,344.910 113.678,346.915 115.119 C 349.301 116.836,349.764 117.730,351.027 123.074 C 352.209 128.078,353.176 129.997,355.234 131.423 C 357.246 132.818,358.202 135.208,358.980 140.784 C 360.077 148.646,361.160 151.807,363.756 154.718 C 366.004 157.238,366.379 159.091,367.011 170.800 C 368.455 197.542,368.512 199.703,368.030 209.493 C 366.444 241.726,366.362 242.414,363.773 245.282 C 361.168 248.167,360.080 251.330,358.980 259.216 C 358.202 264.792,357.246 267.182,355.234 268.577 C 353.210 269.979,352.123 272.072,351.184 276.378 C 350.000 281.803,349.393 283.032,347.041 284.770 C 344.898 286.353,343.674 288.423,342.774 291.985 C 342.326 293.758,340.708 295.668,338.237 297.340 C 337.548 297.806,336.466 299.499,335.317 301.911 C 333.753 305.190,333.012 306.207,330.164 308.979 C 327.774 311.305,326.558 312.849,325.845 314.460 C 325.005 316.360,324.567 316.841,322.983 317.608 C 320.606 318.759,318.759 320.606,317.608 322.983 C 316.841 324.567,316.360 325.005,314.460 325.845 C 312.852 326.556,311.307 327.772,309.003 330.139 C 306.292 332.924,305.166 333.750,301.804 335.420 C 298.520 337.052,297.602 337.716,296.579 339.200 C 295.099 341.348,293.356 342.607,291.338 342.985 C 288.631 343.493,286.365 344.847,284.969 346.790 C 283.374 349.010,281.309 350.055,276.233 351.211 C 271.959 352.185,269.963 353.234,268.577 355.234 C 267.182 357.246,264.792 358.202,259.216 358.980 C 251.425 360.067,248.019 361.254,244.762 364.019 C 243.017 365.500,240.071 366.353,235.800 366.612 C 234.040 366.719,227.650 367.108,221.600 367.475 C 207.490 368.332,192.764 368.335,178.400 367.484 C 172.130 367.113,165.560 366.725,163.800 366.622 C 159.490 366.371,156.986 365.542,154.625 363.585 C 151.550 361.037,148.680 360.081,140.784 358.980 C 135.208 358.202,132.818 357.246,131.423 355.234 C 130.023 353.213,128.017 352.173,123.556 351.154 C 118.934 350.098,116.221 348.788,115.410 347.219 C 114.564 345.583,112.594 344.192,110.000 343.399 C 105.570 342.044,105.105 341.715,102.673 338.222 C 102.273 337.647,100.524 336.475,98.786 335.617 C 95.408 333.949,92.000 331.758,92.000 331.254 C 92.000 330.447,87.926 327.015,85.712 325.959 C 83.605 324.952,83.108 324.508,82.463 323.050 C 81.486 320.840,79.147 318.509,76.919 317.523 C 75.431 316.865,75.016 316.407,74.165 314.483 C 73.441 312.846,72.240 311.319,69.836 308.979 C 66.988 306.207,66.247 305.190,64.683 301.911 C 63.534 299.499,62.452 297.806,61.763 297.340 C 59.292 295.668,57.674 293.758,57.226 291.985 C 56.329 288.432,55.101 286.352,52.973 284.780 C 50.679 283.085,50.121 281.943,48.801 276.233 C 47.811 271.950,46.761 269.959,44.766 268.577 C 42.754 267.182,41.798 264.792,41.020 259.216 C 39.921 251.335,38.945 248.485,36.235 245.242 C 34.038 242.613,33.628 240.582,32.995 229.200 C 31.585 203.836,31.473 199.614,31.960 190.162 C 33.635 157.617,33.639 157.585,36.227 154.718 C 38.813 151.854,39.914 148.683,40.991 140.987 C 41.877 134.664,42.444 133.225,44.854 131.193 C 47.140 129.266,47.960 127.645,48.981 123.037 C 50.015 118.376,50.859 116.694,52.904 115.226 C 54.905 113.789,56.027 112.019,56.979 108.800 C 57.909 105.653,58.396 104.940,60.604 103.490 C 62.316 102.367,62.845 101.656,64.692 98.000 C 66.490 94.441,67.295 93.342,69.959 90.800 C 72.162 88.697,73.414 87.124,74.145 85.539 C 75.017 83.646,75.488 83.132,77.037 82.382 C 79.395 81.241,81.244 79.388,82.392 77.017 C 83.159 75.433,83.640 74.995,85.540 74.155 C 87.147 73.444,88.692 72.229,90.992 69.866 C 93.698 67.086,94.828 66.257,98.197 64.581 C 101.677 62.850,102.361 62.337,103.490 60.611 C 104.926 58.417,105.657 57.934,109.218 56.825 C 112.293 55.868,114.134 54.611,115.176 52.757 C 116.141 51.040,118.440 49.915,122.874 48.989 C 127.504 48.023,128.920 47.325,131.253 44.855 C 133.720 42.245,134.631 41.885,141.047 40.984 C 148.678 39.913,151.544 38.920,154.758 36.235 C 155.694 35.453,157.372 34.542,158.487 34.211 C 160.935 33.484,160.697 33.501,191.200 31.866 C 196.428 31.586,203.547 31.639,210.973 32.013 M145.083 35.839 C 145.302 36.510,140.263 38.027,138.714 37.756 C 136.657 37.397,133.600 36.367,133.600 36.034 C 133.600 35.867,135.084 35.273,136.898 34.713 L 140.196 33.694 142.567 34.547 C 143.872 35.016,145.004 35.598,145.083 35.839 M263.400 34.818 C 267.675 36.163,267.480 36.572,262.085 37.587 C 259.780 38.021,254.616 36.762,254.917 35.839 C 255.076 35.351,259.568 33.633,260.199 33.819 C 260.420 33.884,261.860 34.334,263.400 34.818 M126.000 43.666 C 126.000 44.654,124.542 45.174,121.800 45.164 C 115.614 45.141,113.658 43.988,118.480 43.205 C 120.086 42.945,121.940 42.594,122.600 42.425 C 123.891 42.096,126.000 42.865,126.000 43.666 M280.914 43.029 C 286.127 44.047,284.807 45.122,278.274 45.177 C 275.435 45.201,274.000 44.750,274.000 43.835 C 274.000 43.055,275.667 41.996,276.600 42.182 C 277.040 42.270,278.981 42.651,280.914 43.029 M109.226 50.279 C 110.782 51.198,110.975 51.925,109.901 52.824 C 108.466 54.024,107.740 54.099,105.811 53.246 C 103.541 52.242,103.550 51.985,105.900 50.677 C 108.174 49.411,107.827 49.453,109.226 50.279 M294.056 50.669 C 296.374 51.931,296.352 52.344,293.907 53.357 C 290.683 54.694,287.763 52.199,290.500 50.446 C 292.096 49.424,291.725 49.400,294.056 50.669 M94.780 59.233 C 97.369 59.788,97.321 60.018,94.407 61.039 C 92.172 61.822,91.973 61.833,91.407 61.207 C 89.723 59.346,91.221 58.470,94.780 59.233 M308.943 59.677 C 309.961 61.303,308.289 61.983,305.593 61.039 C 302.750 60.043,302.645 59.774,304.900 59.258 C 307.188 58.734,308.434 58.863,308.943 59.677 M86.738 67.325 C 87.262 67.957,84.940 70.400,83.815 70.400 C 82.786 70.400,81.524 68.378,82.098 67.649 C 83.733 65.571,85.197 65.469,86.738 67.325 M318.371 68.046 C 318.584 69.860,316.034 70.713,314.431 69.364 C 312.870 68.051,312.879 67.383,314.470 66.416 L 315.740 65.644 317.041 66.722 C 317.757 67.315,318.355 67.911,318.371 68.046 M77.380 74.224 C 78.732 75.109,78.874 75.799,77.947 76.977 C 76.524 78.785,75.772 78.951,74.620 77.708 C 72.701 75.639,75.039 72.690,77.380 74.224 M325.278 74.675 C 326.688 76.025,326.681 76.381,325.218 77.783 L 324.036 78.916 322.560 77.440 L 321.084 75.964 322.217 74.782 C 323.607 73.331,323.866 73.322,325.278 74.675 M69.346 82.429 C 70.664 83.466,70.668 84.021,69.364 85.569 C 68.051 87.130,67.383 87.121,66.416 85.530 L 65.644 84.260 66.722 82.959 C 68.022 81.390,68.024 81.389,69.346 82.429 M334.000 84.453 C 334.000 84.839,333.587 85.636,333.081 86.223 L 332.163 87.291 330.881 85.832 C 329.322 84.056,329.288 83.504,330.667 82.419 L 331.734 81.579 332.867 82.664 C 333.490 83.261,334.000 84.066,334.000 84.453 M61.207 91.407 C 61.833 91.973,61.822 92.172,61.039 94.407 C 60.018 97.321,59.788 97.369,59.233 94.780 C 58.470 91.221,59.346 89.723,61.207 91.407 M340.782 91.566 C 341.059 92.084,341.063 93.015,340.793 94.436 C 340.333 96.863,340.122 97.212,339.755 96.157 C 339.611 95.741,339.154 94.607,338.741 93.638 C 338.328 92.669,338.037 91.841,338.095 91.797 C 339.534 90.711,340.289 90.646,340.782 91.566 M53.246 105.811 C 54.092 107.723,54.028 108.428,52.877 109.920 C 51.041 112.297,49.081 108.861,50.640 105.998 C 51.975 103.544,52.235 103.525,53.246 105.811 M349.360 105.998 C 350.919 108.861,348.959 112.297,347.123 109.920 C 345.972 108.428,345.908 107.723,346.754 105.811 C 347.765 103.525,348.025 103.544,349.360 105.998 M74.462 114.609 C 73.267 115.615,71.600 120.912,71.600 123.703 C 71.600 125.039,74.017 127.197,76.600 128.168 C 82.507 130.388,83.120 131.355,82.448 137.400 C 82.277 138.940,82.288 141.992,82.473 144.182 L 82.809 148.164 80.904 150.109 C 79.857 151.179,77.893 152.849,76.540 153.819 C 71.329 157.556,69.907 164.206,72.992 170.400 C 73.527 171.474,74.091 173.751,74.388 176.043 L 74.888 179.886 73.689 181.541 C 71.150 185.046,71.097 185.708,71.256 211.872 L 71.400 235.458 72.480 237.091 C 73.290 238.315,74.242 239.042,76.280 239.997 C 77.776 240.698,79.877 241.828,80.949 242.509 L 82.898 243.746 82.646 246.373 C 82.507 247.818,82.225 253.316,82.018 258.590 L 81.643 268.181 82.674 269.533 C 84.483 271.904,91.046 273.844,92.978 272.578 C 94.787 271.392,95.870 268.940,96.566 264.454 C 96.920 262.174,97.309 260.148,97.430 259.951 C 97.986 259.051,100.173 258.324,101.562 258.578 C 102.353 258.722,106.976 258.986,111.836 259.164 C 116.964 259.352,120.992 259.675,121.436 259.932 C 121.856 260.176,121.993 260.381,121.739 260.388 C 120.106 260.431,119.058 274.923,120.425 278.575 C 122.238 283.419,123.458 284.049,129.113 283.057 C 131.479 282.642,132.756 282.642,135.913 283.059 C 138.051 283.341,139.919 283.578,140.064 283.586 C 140.992 283.636,144.388 280.213,145.523 278.084 C 147.340 274.676,149.532 274.402,152.234 277.245 C 154.128 279.238,159.222 282.622,161.716 283.544 L 164.031 284.400 165.605 283.597 C 167.862 282.446,169.957 280.197,171.028 277.776 L 171.955 275.679 175.878 275.520 C 180.798 275.320,180.426 275.150,181.757 278.205 C 182.914 280.862,184.667 282.768,186.956 283.859 C 189.256 284.956,197.475 280.893,200.382 277.222 C 202.528 274.513,204.560 274.630,205.894 277.538 C 207.119 280.209,208.161 281.426,210.291 282.675 L 212.124 283.749 213.454 282.174 C 216.590 278.461,217.029 264.049,214.108 260.719 C 212.663 259.073,216.054 258.984,272.200 259.200 C 327.238 259.412,325.271 259.471,327.075 257.538 C 329.773 254.646,329.582 259.340,329.587 196.000 L 329.592 139.000 328.653 136.984 C 327.745 135.034,325.632 132.810,324.669 132.791 C 310.237 132.507,105.718 132.924,103.301 133.241 C 98.399 133.886,97.650 133.360,96.655 128.580 C 94.674 119.060,93.796 117.623,88.738 115.624 C 82.962 113.342,76.513 112.883,74.462 114.609 M44.876 117.433 C 45.350 120.104,45.219 124.541,44.643 125.300 C 43.392 126.949,42.172 125.274,42.560 122.440 C 43.497 115.595,44.257 113.952,44.876 117.433 M357.082 120.144 C 357.751 124.167,357.499 126.000,356.276 126.000 C 355.109 126.000,354.673 124.160,354.907 120.230 C 355.273 114.095,356.071 114.063,357.082 120.144 M85.867 123.245 L 87.800 124.089 86.200 124.673 C 84.885 125.152,84.208 125.172,82.400 124.784 C 78.978 124.049,78.828 123.782,81.449 123.095 C 82.742 122.757,83.830 122.462,83.867 122.440 C 83.904 122.418,84.804 122.780,85.867 123.245 M36.931 135.500 C 37.998 138.904,38.027 139.902,37.136 142.614 C 36.159 145.590,35.798 145.773,34.942 143.723 C 33.889 141.202,33.864 139.841,34.813 136.644 C 35.870 133.085,36.130 132.944,36.931 135.500 M365.187 136.644 C 366.136 139.841,366.111 141.202,365.058 143.723 C 364.202 145.773,363.841 145.590,362.864 142.614 C 361.973 139.902,362.002 138.904,363.069 135.500 C 363.870 132.944,364.130 133.085,365.187 136.644 M325.021 138.123 L 326.077 139.446 326.077 196.023 L 326.078 252.600 324.939 253.891 L 323.800 255.182 319.368 254.802 C 316.667 254.571,274.414 254.473,211.168 254.551 C 99.095 254.689,102.318 254.741,98.074 252.703 L 97.000 252.187 97.000 242.593 C 97.000 234.665,97.127 232.479,97.731 230.000 C 98.883 225.268,98.532 165.222,97.320 159.800 C 96.602 156.589,96.542 155.315,96.758 148.004 L 97.000 139.809 98.048 139.308 C 101.738 137.542,99.203 137.582,210.200 137.551 C 267.840 137.535,316.710 137.387,318.800 137.221 C 320.890 137.056,322.907 136.893,323.283 136.860 C 323.659 136.827,324.441 137.395,325.021 138.123 M306.180 143.739 C 300.899 146.141,299.474 159.726,304.268 161.973 C 307.014 163.260,312.889 163.157,316.707 161.755 C 322.122 159.767,322.324 151.550,317.087 146.313 C 314.860 144.087,308.642 142.620,306.180 143.739 M105.194 144.500 C 101.497 146.374,99.756 156.356,102.374 160.662 C 104.706 164.495,119.306 163.297,121.203 159.117 C 124.226 152.457,120.067 145.099,112.684 144.045 C 108.275 143.416,107.205 143.481,105.194 144.500 M235.363 147.997 C 234.724 148.636,229.944 149.493,224.228 149.995 C 217.199 150.613,216.007 151.200,214.200 154.934 C 213.578 156.220,213.045 156.709,211.800 157.133 C 206.895 158.807,206.231 159.346,205.208 162.484 C 204.583 164.400,204.379 164.629,202.907 165.055 C 199.631 166.004,198.856 166.883,197.990 170.640 C 197.231 173.928,196.400 175.503,195.150 176.021 C 191.152 177.677,190.600 179.931,190.600 194.600 C 190.600 210.318,191.166 213.227,194.621 215.265 C 196.279 216.244,197.325 218.117,197.977 221.275 C 198.643 224.502,199.807 226.063,202.125 226.836 C 204.393 227.592,204.532 227.730,205.124 229.817 C 205.762 232.066,207.376 233.446,210.602 234.499 C 213.289 235.376,213.393 235.461,214.515 237.681 C 216.143 240.900,217.433 241.448,225.211 242.227 C 228.583 242.565,231.490 242.932,231.670 243.043 C 232.687 243.672,243.543 243.943,245.619 243.391 C 246.818 243.072,250.590 242.527,254.000 242.180 C 261.588 241.408,263.351 240.718,264.680 238.000 C 265.893 235.517,266.636 234.870,269.089 234.157 C 271.847 233.355,273.467 231.959,274.061 229.871 C 274.679 227.697,275.667 226.627,277.585 226.052 C 279.497 225.479,281.046 223.711,281.588 221.482 C 282.846 216.309,283.647 214.396,284.803 213.798 C 288.471 211.902,289.404 208.522,289.385 197.200 C 289.365 185.594,288.590 182.314,285.190 179.453 C 283.893 178.361,283.026 176.265,281.819 171.299 C 280.961 167.771,280.076 166.567,277.879 165.941 C 275.694 165.318,274.885 164.595,274.403 162.836 C 273.586 159.854,272.652 158.900,269.658 157.990 C 266.564 157.050,265.972 156.580,264.671 154.031 C 263.425 151.589,261.745 150.813,256.271 150.151 C 253.812 149.853,250.540 149.416,249.000 149.178 C 247.460 148.940,244.118 148.585,241.573 148.388 C 239.028 148.192,236.683 147.930,236.362 147.807 C 236.040 147.683,235.591 147.769,235.363 147.997 M311.428 150.471 C 318.539 155.296,318.560 156.929,311.538 158.949 C 308.146 159.925,307.488 159.816,305.847 157.999 C 305.051 157.118,304.400 156.225,304.400 156.013 C 304.400 154.520,307.363 148.400,308.085 148.400 C 308.245 148.400,309.749 149.332,311.428 150.471 M112.444 150.791 L 116.255 151.983 117.200 153.999 L 118.144 156.016 117.330 157.108 C 116.510 158.207,114.949 158.656,109.651 159.318 C 105.400 159.850,103.840 156.183,106.412 151.700 C 107.826 149.234,107.580 149.271,112.444 150.791 M146.049 153.403 C 143.073 156.092,141.877 160.759,142.273 168.144 L 142.513 172.618 141.042 173.909 C 140.170 174.675,139.130 175.204,138.486 175.209 C 136.598 175.224,134.189 176.600,133.174 178.242 C 132.227 179.774,132.224 179.818,132.004 195.789 C 131.730 215.609,131.793 215.850,137.695 217.490 C 141.723 218.610,141.832 218.843,142.124 226.912 C 142.501 237.325,143.329 239.807,146.770 240.838 C 149.672 241.708,155.600 238.727,155.600 236.399 C 155.600 235.623,156.211 236.027,157.088 237.381 C 159.061 240.428,163.614 241.932,165.990 240.322 C 169.072 238.236,169.406 237.043,169.829 226.600 C 170.127 219.271,170.353 218.639,172.899 218.014 C 179.719 216.339,179.694 216.420,179.622 196.321 C 179.549 176.124,179.566 176.177,173.103 174.988 C 171.007 174.602,169.188 172.498,169.407 170.712 C 170.442 162.267,169.382 157.028,165.958 153.681 C 163.687 151.461,160.303 153.187,156.711 158.400 C 156.030 159.388,156.014 159.390,155.432 158.600 C 152.937 155.211,151.952 154.190,150.200 153.171 C 147.720 151.729,147.915 151.718,146.049 153.403 M249.978 152.821 C 255.224 153.479,259.340 155.238,260.483 157.310 C 261.547 159.239,263.773 160.651,266.366 161.043 C 269.195 161.472,271.106 163.448,270.265 165.075 C 269.424 166.701,269.064 166.800,264.015 166.800 L 259.695 166.800 258.623 168.205 C 258.034 168.978,257.098 170.635,256.545 171.887 C 255.297 174.707,252.329 179.230,251.830 179.071 C 250.904 178.776,249.100 174.166,248.546 170.682 C 247.346 163.129,247.548 163.441,241.200 159.307 C 238.670 157.659,236.520 156.236,236.422 156.145 C 236.009 155.757,238.022 154.301,240.225 153.395 C 242.880 152.304,244.904 152.185,249.978 152.821 M233.600 155.154 C 235.351 155.789,235.637 156.005,235.000 156.217 C 234.560 156.363,232.220 157.139,229.800 157.941 L 225.400 159.400 224.457 161.301 C 223.024 164.190,223.787 165.717,228.377 169.150 C 231.157 171.229,231.288 172.808,228.914 175.630 C 227.991 176.726,227.930 176.740,226.383 176.194 C 219.545 173.781,208.756 174.317,205.021 177.255 C 203.745 178.259,203.057 177.844,201.945 175.400 C 200.492 172.205,201.508 170.039,205.530 167.755 C 206.276 167.331,207.470 165.996,208.251 164.712 C 209.812 162.147,210.891 161.273,213.800 160.217 C 215.120 159.738,216.519 158.760,217.914 157.340 C 221.141 154.055,227.947 153.107,233.600 155.154 M85.107 158.501 C 85.573 158.997,86.426 160.433,87.003 161.694 L 88.052 163.985 86.985 166.361 C 86.399 167.667,85.520 169.111,85.033 169.569 L 84.146 170.402 81.973 169.250 C 80.778 168.617,78.927 167.775,77.860 167.380 C 73.661 165.824,73.878 162.093,78.261 160.469 C 79.548 159.992,81.320 159.169,82.200 158.639 C 84.215 157.426,84.102 157.431,85.107 158.501 M29.506 166.400 C 29.685 171.321,28.923 179.747,28.096 182.000 C 27.974 182.330,27.525 180.980,27.097 179.000 C 25.696 172.527,26.143 161.240,27.918 158.227 C 28.509 157.224,29.325 161.425,29.506 166.400 M372.786 160.400 C 374.133 164.207,373.986 172.682,372.422 181.400 C 371.752 185.135,370.247 173.608,370.508 166.740 C 370.789 159.346,371.607 157.068,372.786 160.400 M150.575 166.600 C 150.447 168.140,150.086 171.650,149.774 174.400 C 148.969 181.503,148.983 210.146,149.796 217.800 C 150.733 226.617,150.017 232.800,148.058 232.800 C 147.164 232.800,146.379 228.004,146.444 222.935 C 146.538 215.634,145.723 214.047,141.477 213.254 C 138.676 212.731,138.506 212.475,138.857 209.315 C 139.023 207.822,139.187 202.190,139.222 196.800 C 139.256 191.410,139.401 185.394,139.542 183.430 L 139.800 179.860 142.000 179.419 C 146.277 178.563,146.630 177.793,146.506 169.595 C 146.421 163.921,146.484 163.273,147.245 162.022 L 148.077 160.654 149.443 162.227 C 150.785 163.773,150.804 163.848,150.575 166.600 M238.700 162.682 C 243.987 165.961,245.651 169.482,245.528 177.137 C 245.411 184.459,246.190 186.813,248.967 187.530 C 250.400 187.900,250.718 190.599,250.192 197.902 C 249.840 202.789,249.455 203.272,245.639 203.622 C 239.599 204.176,237.241 210.720,241.977 213.785 C 244.539 215.443,244.938 216.106,245.583 219.774 C 246.207 223.325,247.427 225.528,249.449 226.754 C 251.697 228.117,251.766 228.012,247.587 229.561 L 243.974 230.900 240.774 229.437 C 235.008 226.801,233.820 224.078,234.242 214.461 C 234.541 207.660,234.235 206.035,232.192 203.591 C 231.427 202.674,230.800 201.896,230.800 201.862 C 230.800 201.828,230.533 200.540,230.206 199.000 C 228.732 192.048,231.405 186.008,237.026 183.591 C 241.125 181.829,241.408 179.860,237.780 178.356 C 235.378 177.361,235.178 177.008,233.846 171.427 C 233.045 168.073,231.838 166.388,229.421 165.252 C 226.534 163.895,226.794 163.587,232.162 162.002 C 236.071 160.848,235.676 160.807,238.700 162.682 M164.790 162.500 C 165.249 163.208,165.347 164.642,165.250 169.226 C 165.079 177.349,166.043 179.185,170.487 179.206 C 173.096 179.218,172.996 178.688,173.029 192.685 C 173.046 199.678,173.205 206.958,173.382 208.863 L 173.704 212.326 172.472 212.963 C 171.794 213.313,170.775 213.600,170.207 213.600 C 166.216 213.600,165.488 215.021,165.181 223.400 C 165.030 227.509,164.728 230.675,164.416 231.400 L 163.901 232.600 162.899 230.400 L 161.896 228.200 162.416 221.200 C 163.251 209.955,163.385 183.449,162.644 176.000 C 161.366 163.147,161.367 164.087,162.631 162.768 C 163.975 161.365,164.049 161.356,164.790 162.500 M277.309 170.765 C 278.020 171.610,278.642 173.450,279.572 177.465 C 280.277 180.509,281.220 183.990,281.666 185.200 C 283.825 191.050,284.634 195.845,284.196 200.200 C 283.921 202.924,283.830 203.201,283.580 202.063 C 283.102 199.890,282.928 199.840,274.792 199.519 C 267.077 199.214,263.325 198.624,260.138 197.214 C 257.852 196.202,257.934 195.892,260.900 194.333 C 267.877 190.665,272.241 184.486,272.860 177.400 C 273.519 169.862,274.863 167.857,277.309 170.765 M269.440 175.906 C 269.775 180.407,269.146 182.296,266.966 183.335 C 266.216 183.693,265.107 184.739,264.501 185.660 C 263.896 186.581,262.667 188.106,261.770 189.050 L 260.140 190.765 257.170 190.536 C 252.495 190.174,251.250 188.851,253.530 186.667 C 254.152 186.071,255.170 184.462,255.792 183.092 C 260.177 173.432,261.128 172.288,265.536 171.369 C 268.720 170.706,269.084 171.128,269.440 175.906 M222.200 178.958 C 224.126 179.694,224.622 180.065,224.713 180.838 C 224.775 181.367,225.091 183.176,225.416 184.858 C 226.432 190.113,223.936 191.700,217.378 189.968 C 214.862 189.303,213.114 189.138,208.990 189.174 C 202.599 189.231,201.758 188.885,202.931 186.688 C 203.336 185.930,204.284 185.022,205.056 184.654 C 206.097 184.157,206.703 183.434,207.457 181.788 C 209.245 177.883,215.994 176.587,222.200 178.958 M85.279 183.900 C 87.780 186.573,87.686 185.418,87.470 210.745 C 87.254 236.220,87.267 236.046,85.436 237.178 L 84.161 237.966 80.980 236.957 C 75.067 235.081,75.271 236.083,75.144 208.316 C 75.035 184.436,74.809 186.072,78.333 185.205 C 79.360 184.952,81.010 184.316,82.000 183.791 C 84.248 182.599,84.056 182.592,85.279 183.900 M197.624 187.764 C 198.812 191.974,200.103 192.600,207.600 192.600 L 213.400 192.600 216.179 194.038 C 219.835 195.930,219.877 195.768,214.801 199.363 C 207.923 204.234,207.168 205.708,206.889 214.800 C 206.699 220.994,206.295 222.526,204.719 223.026 C 203.270 223.486,201.380 220.965,200.837 217.846 C 200.318 214.864,198.051 208.920,196.590 206.714 C 194.534 203.606,193.575 189.770,195.168 186.190 L 196.054 184.200 196.618 185.200 C 196.929 185.750,197.382 186.904,197.624 187.764 M225.061 201.813 C 226.967 202.589,227.074 203.634,225.466 205.741 C 224.712 206.729,223.723 208.639,223.268 209.985 C 222.329 212.767,220.587 215.172,218.640 216.375 C 217.909 216.827,216.821 217.904,216.222 218.768 C 214.745 220.899,212.199 221.982,211.155 220.923 C 208.767 218.504,210.093 208.597,213.049 206.769 C 213.798 206.307,214.596 205.580,214.824 205.155 C 216.598 201.840,221.334 200.293,225.061 201.813 M266.400 202.390 C 277.198 203.539,277.765 203.715,274.964 205.044 C 273.327 205.821,271.893 207.812,271.161 210.324 C 270.058 214.109,263.985 215.365,257.853 213.076 L 255.506 212.200 254.390 208.857 C 253.776 207.019,253.078 205.318,252.837 205.077 C 251.562 203.802,252.699 202.484,255.477 202.017 C 258.338 201.537,258.408 201.539,266.400 202.390 M277.008 211.356 C 279.269 213.010,278.160 221.292,275.496 222.638 C 273.635 223.579,272.438 224.771,271.516 226.600 C 270.255 229.102,269.273 229.931,265.326 231.825 C 262.854 233.012,261.309 234.035,260.614 234.945 C 258.465 237.764,252.314 239.027,246.821 237.778 C 244.030 237.143,243.892 237.148,241.991 237.966 C 235.745 240.653,222.865 239.524,219.639 236.007 C 219.068 235.384,218.112 234.336,217.515 233.678 C 216.887 232.985,215.272 232.039,213.680 231.431 C 207.074 228.906,207.383 226.064,214.400 224.802 C 219.476 223.888,221.674 221.963,226.841 213.905 C 227.369 213.083,227.914 212.408,228.054 212.405 C 228.903 212.388,230.552 217.931,231.207 223.000 C 232.032 229.388,232.784 230.303,239.763 233.414 L 244.125 235.359 248.737 233.779 C 256.876 230.992,258.233 227.785,252.714 224.386 C 248.717 221.925,247.985 218.897,250.747 216.251 L 251.875 215.170 255.781 216.185 C 265.100 218.606,272.889 217.081,274.989 212.425 C 275.802 210.621,275.918 210.560,277.008 211.356 M29.014 223.400 C 30.068 230.753,29.466 241.600,28.004 241.600 C 26.426 241.600,25.763 228.342,26.997 221.462 C 27.893 216.464,28.039 216.604,29.014 223.400 M372.991 221.900 C 374.207 228.847,373.617 240.400,371.995 241.403 C 370.588 242.273,369.913 230.385,370.995 223.800 C 371.320 221.820,371.589 219.615,371.593 218.900 C 371.607 216.305,372.255 217.695,372.991 221.900 M306.600 229.170 C 301.337 230.469,299.536 238.501,303.005 245.209 C 305.936 250.878,315.957 249.209,319.353 242.487 C 323.066 235.139,320.484 230.140,312.600 229.410 C 311.060 229.268,309.350 229.089,308.800 229.013 C 308.250 228.936,307.260 229.007,306.600 229.170 M104.412 229.732 C 99.291 231.693,100.371 245.748,105.803 247.822 C 107.811 248.589,114.958 248.162,116.915 247.158 C 122.669 244.206,123.880 232.956,118.713 230.455 C 116.423 229.346,106.702 228.855,104.412 229.732 M113.958 233.351 C 115.987 233.707,116.683 234.025,117.330 234.892 L 118.144 235.984 117.200 238.000 L 116.255 240.017 112.281 241.277 C 107.653 242.744,107.477 242.697,105.941 239.561 C 104.168 235.940,104.169 235.831,105.973 234.027 C 107.762 232.238,107.664 232.246,113.958 233.351 M311.538 233.051 C 318.570 235.074,318.512 236.891,311.264 241.736 C 307.826 244.034,307.755 244.021,306.144 240.750 C 304.125 236.651,304.092 235.944,305.821 234.029 C 307.490 232.182,308.136 232.072,311.538 233.051 M37.136 257.385 C 38.000 260.017,37.962 261.191,36.889 264.974 C 36.329 266.948,35.788 266.550,34.815 263.447 C 33.828 260.299,33.853 258.884,34.942 256.277 C 35.798 254.227,36.159 254.410,37.136 257.385 M365.233 256.818 C 366.181 259.157,366.169 260.037,365.143 263.500 C 364.132 266.911,363.865 267.040,363.069 264.500 C 362.001 261.093,361.973 260.099,362.868 257.373 C 363.842 254.407,364.219 254.318,365.233 256.818 M206.504 266.040 C 209.006 267.299,209.701 267.997,209.131 268.683 C 208.248 269.747,207.225 270.006,201.552 270.605 C 194.688 271.329,192.240 272.259,189.732 275.093 L 188.065 276.978 187.332 275.589 C 183.512 268.343,168.832 268.152,165.155 275.300 C 164.175 277.206,164.013 277.186,162.176 274.945 C 158.149 270.030,146.449 268.722,141.345 272.615 C 139.954 273.676,139.867 273.689,137.063 273.263 C 135.488 273.024,133.120 272.718,131.800 272.583 C 123.604 271.743,123.430 267.431,131.500 265.142 C 134.070 264.413,204.956 265.262,206.504 266.040 M45.177 278.144 C 45.122 284.930,44.022 286.231,43.001 280.718 C 42.128 276.013,42.133 275.358,43.041 274.355 L 43.781 273.537 44.491 274.413 C 45.028 275.076,45.194 275.981,45.177 278.144 M357.579 275.355 C 357.829 276.031,356.811 282.277,356.170 284.000 C 355.705 285.247,355.133 283.157,354.909 279.393 C 354.600 274.216,356.240 271.735,357.579 275.355 M53.225 290.640 C 54.114 292.080,54.115 292.081,53.357 293.907 C 52.340 296.361,51.932 296.376,50.641 294.004 L 49.543 291.987 50.404 290.593 C 51.495 288.828,52.111 288.838,53.225 290.640 M348.974 289.831 C 350.440 291.297,350.491 291.920,349.318 294.008 C 348.000 296.355,347.652 296.342,346.643 293.907 C 345.536 291.238,347.299 288.156,348.974 289.831 M61.045 305.641 L 61.913 308.038 60.933 308.681 C 59.177 309.831,58.577 308.702,59.197 305.416 C 59.771 302.375,59.867 302.387,61.045 305.641 M341.162 307.451 C 341.224 308.834,340.194 309.419,339.036 308.660 L 338.067 308.026 338.850 305.913 C 339.280 304.751,339.743 303.530,339.879 303.200 C 340.129 302.594,341.086 305.766,341.162 307.451 M70.400 316.165 C 70.400 316.482,69.920 317.120,69.333 317.581 L 68.266 318.421 67.133 317.336 C 65.772 316.032,65.716 315.269,66.872 313.799 L 67.744 312.690 69.072 314.139 C 69.802 314.936,70.400 315.848,70.400 316.165 M334.000 315.547 C 334.000 315.934,333.490 316.739,332.867 317.336 L 331.734 318.421 330.667 317.581 C 329.288 316.496,329.322 315.944,330.881 314.168 L 332.163 312.709 333.081 313.777 C 333.587 314.364,334.000 315.161,334.000 315.547 M77.581 322.580 C 79.885 324.958,77.154 327.656,74.762 325.364 C 73.345 324.006,73.313 323.451,74.582 322.182 C 75.847 320.917,75.987 320.936,77.581 322.580 M325.384 322.296 C 326.655 323.666,326.650 323.895,325.325 325.278 C 324.004 326.657,323.681 326.668,322.292 325.380 C 321.045 324.224,321.214 323.476,323.051 322.031 C 324.353 321.007,324.170 320.986,325.384 322.296 M85.678 330.654 C 87.485 331.906,87.519 332.091,86.146 333.171 C 84.732 334.283,83.956 334.216,82.664 332.867 L 81.579 331.734 82.419 330.667 C 83.462 329.341,83.782 329.340,85.678 330.654 M317.581 330.667 L 318.421 331.734 317.336 332.867 C 316.020 334.240,315.182 334.291,313.777 333.081 L 312.709 332.163 314.168 330.881 C 315.944 329.322,316.496 329.288,317.581 330.667 M96.233 339.600 C 97.649 339.600,96.587 340.388,94.619 340.796 C 91.431 341.458,90.151 340.705,91.410 338.907 L 92.020 338.037 93.843 338.818 C 94.846 339.248,95.921 339.600,96.233 339.600 M309.200 339.995 C 309.200 341.020,307.954 341.282,305.386 340.797 C 302.400 340.234,302.409 340.122,305.530 338.965 C 307.805 338.122,309.200 338.513,309.200 339.995 M109.453 346.833 C 110.969 347.770,111.070 348.073,110.169 348.974 C 108.709 350.433,108.076 350.491,105.990 349.356 C 103.565 348.036,103.535 347.772,105.700 346.789 C 107.824 345.825,107.823 345.825,109.453 346.833 M294.300 346.789 C 296.454 347.767,296.432 347.957,294.008 349.318 C 291.920 350.491,291.297 350.440,289.831 348.974 C 287.990 347.133,291.392 345.469,294.300 346.789 M125.642 355.553 L 126.572 356.307 125.286 357.089 C 123.957 357.897,116.926 357.086,115.840 356.000 C 114.602 354.762,124.128 354.328,125.642 355.553 M283.906 355.557 C 284.801 356.059,284.519 356.166,279.715 357.142 C 276.073 357.882,276.016 357.881,274.729 357.099 L 273.428 356.307 274.414 355.503 C 275.479 354.634,282.332 354.673,283.906 355.557 M142.592 362.856 C 146.043 363.989,145.414 365.161,140.966 365.883 C 139.636 366.099,133.600 364.535,133.600 363.974 C 133.600 363.651,136.667 362.566,138.400 362.276 C 138.950 362.184,139.531 362.084,139.692 362.054 C 139.852 362.025,141.157 362.385,142.592 362.856 M264.300 363.039 C 267.092 363.815,266.959 364.118,263.356 365.187 C 260.159 366.136,258.798 366.111,256.277 365.058 C 254.240 364.207,254.409 363.844,257.300 362.869 C 259.890 361.995,260.605 362.012,264.300 363.039 M176.918 371.031 C 183.005 371.971,183.339 372.075,181.400 372.422 C 171.871 374.128,166.598 374.263,161.295 372.935 C 159.134 372.395,157.668 371.637,158.676 371.582 C 158.854 371.573,159.900 371.315,161.000 371.009 C 163.746 370.247,171.916 370.258,176.918 371.031 M239.266 371.051 C 242.021 371.823,241.970 372.088,238.911 372.909 C 233.778 374.287,227.716 374.136,218.600 372.404 C 216.603 372.025,216.515 372.057,221.800 371.217 C 227.737 370.274,236.210 370.193,239.266 371.051 " stroke="none" fill="#ce8612" fill-rule="evenodd"></path><path id="path3" d="M193.600 14.637 C 187.386 15.043,180.920 15.723,176.800 16.403 C 174.270 16.821,170.310 17.275,168.000 17.412 C 160.218 17.871,153.835 19.450,144.600 23.200 C 142.214 24.169,138.825 25.150,136.200 25.631 C 132.492 26.311,131.297 26.730,128.600 28.292 C 123.724 31.118,121.213 32.337,118.800 33.051 C 115.751 33.954,113.325 35.235,110.230 37.578 C 108.585 38.822,106.120 40.151,103.712 41.090 C 100.433 42.368,99.438 42.985,97.220 45.109 C 95.779 46.489,93.146 48.584,91.370 49.765 C 89.593 50.947,87.073 52.898,85.770 54.103 C 84.466 55.307,82.116 57.122,80.547 58.135 C 78.978 59.148,76.458 61.204,74.947 62.704 C 73.436 64.204,71.344 66.018,70.297 66.737 C 69.250 67.455,67.644 69.068,66.728 70.321 C 65.812 71.575,63.941 73.716,62.570 75.080 C 61.199 76.443,59.092 79.053,57.887 80.880 C 56.682 82.706,55.295 84.560,54.804 85.000 C 53.506 86.165,50.214 90.395,49.463 91.864 C 49.108 92.559,47.418 94.642,45.708 96.493 C 42.982 99.445,42.415 100.333,41.090 103.721 C 40.156 106.109,38.816 108.593,37.582 110.224 C 35.134 113.458,34.226 115.204,32.942 119.146 C 31.957 122.169,31.270 123.560,28.078 129.000 C 26.736 131.285,26.311 132.535,25.765 135.800 C 25.324 138.434,24.377 141.644,22.989 145.200 C 19.063 155.265,17.891 160.092,17.404 168.200 C 17.258 170.620,16.887 173.950,16.578 175.600 C 14.090 188.898,14.078 211.424,16.553 224.436 C 16.863 226.066,17.239 229.380,17.389 231.800 C 17.884 239.795,19.456 246.178,23.200 255.400 C 24.169 257.786,25.150 261.175,25.631 263.800 C 26.311 267.508,26.730 268.703,28.292 271.400 C 31.118 276.276,32.337 278.787,33.051 281.200 C 33.970 284.305,35.220 286.643,37.782 290.047 C 39.317 292.086,40.399 294.103,41.280 296.565 C 42.366 299.599,42.926 300.521,45.045 302.765 C 47.963 305.853,48.686 306.775,50.095 309.200 C 50.669 310.190,52.291 312.260,53.698 313.800 C 55.105 315.340,57.043 317.770,58.006 319.200 C 58.968 320.630,61.034 323.150,62.597 324.800 C 64.160 326.450,66.025 328.656,66.741 329.703 C 67.457 330.750,69.068 332.352,70.321 333.264 C 71.575 334.176,73.860 336.123,75.400 337.590 C 76.940 339.057,79.370 341.038,80.800 341.992 C 82.230 342.945,84.300 344.559,85.400 345.577 C 87.890 347.883,90.023 349.506,92.263 350.800 C 93.215 351.350,95.332 353.038,96.966 354.550 C 99.485 356.881,100.525 357.532,103.782 358.813 C 105.896 359.644,108.275 360.837,109.069 361.462 C 113.268 364.771,115.200 365.831,119.512 367.190 C 121.113 367.695,124.083 369.091,126.112 370.292 C 131.525 373.496,131.550 373.506,135.846 374.234 C 138.403 374.668,141.707 375.648,145.200 377.011 C 155.110 380.876,159.908 382.048,168.000 382.578 C 170.090 382.715,173.510 383.102,175.600 383.437 C 190.505 385.829,210.112 385.827,224.445 383.432 C 226.340 383.115,229.670 382.742,231.845 382.602 C 239.787 382.091,245.932 380.548,256.200 376.488 C 258.487 375.584,261.897 374.618,264.162 374.234 C 268.512 373.496,268.275 373.589,273.400 370.603 C 276.748 368.652,278.486 367.878,283.256 366.215 C 285.278 365.509,288.210 363.719,290.379 361.865 C 291.827 360.626,294.606 359.272,297.929 358.185 C 299.326 357.728,300.720 356.768,302.655 354.931 C 304.165 353.497,306.913 351.337,308.763 350.131 C 310.612 348.924,313.132 346.989,314.363 345.830 C 315.593 344.672,317.770 342.942,319.200 341.986 C 320.630 341.030,323.240 338.873,325.000 337.194 C 326.760 335.514,328.979 333.625,329.932 332.996 C 330.884 332.366,332.225 331.030,332.911 330.026 C 333.597 329.022,335.528 326.760,337.203 325.000 C 338.877 323.240,341.030 320.630,341.986 319.200 C 342.942 317.770,344.672 315.593,345.830 314.363 C 346.989 313.132,348.924 310.612,350.131 308.763 C 351.338 306.913,353.491 304.184,354.917 302.699 C 356.779 300.758,357.695 299.427,358.171 297.972 C 359.259 294.646,360.615 291.843,361.843 290.379 C 364.596 287.098,365.821 284.833,367.190 280.488 C 367.695 278.887,369.091 275.917,370.292 273.888 C 373.498 268.472,373.508 268.449,374.223 264.154 C 374.634 261.689,375.556 258.500,376.671 255.685 C 380.633 245.690,382.088 239.843,382.618 231.800 C 382.763 229.600,383.136 226.360,383.448 224.600 C 385.740 211.661,385.737 188.569,383.442 175.774 C 383.124 174.000,382.746 170.580,382.603 168.174 C 382.138 160.375,380.496 153.797,376.619 144.200 C 375.818 142.220,374.741 138.530,374.225 136.000 C 373.389 131.906,373.009 130.919,370.766 127.023 C 369.380 124.616,367.741 121.141,367.123 119.302 C 365.588 114.735,364.789 113.290,361.462 109.069 C 360.837 108.275,359.654 105.921,358.834 103.836 C 357.585 100.662,356.906 99.573,354.646 97.124 C 353.162 95.516,351.475 93.390,350.897 92.400 C 349.543 90.080,346.792 86.478,345.399 85.200 C 344.799 84.650,343.395 82.853,342.279 81.207 C 341.163 79.560,338.841 76.718,337.120 74.891 C 335.399 73.063,333.509 70.841,332.921 69.952 C 332.333 69.063,331.060 67.792,330.093 67.127 C 329.126 66.461,326.983 64.591,325.331 62.970 C 323.678 61.349,321.038 59.180,319.463 58.148 C 317.888 57.117,315.534 55.292,314.230 54.093 C 312.927 52.894,310.407 50.947,308.630 49.765 C 306.854 48.584,304.221 46.489,302.780 45.109 C 300.544 42.967,299.579 42.373,296.180 41.050 C 293.991 40.198,291.508 38.954,290.662 38.287 C 287.105 35.479,284.409 33.956,281.705 33.228 C 279.456 32.623,275.749 30.857,271.636 28.433 C 268.797 26.760,267.674 26.347,264.436 25.786 C 262.161 25.391,258.322 24.258,255.000 23.001 C 244.447 19.007,239.786 17.873,232.000 17.404 C 229.690 17.265,226.270 16.892,224.400 16.576 C 215.696 15.105,200.796 14.167,193.600 14.637 M212.200 20.411 C 216.205 21.235,227.503 22.396,231.522 22.398 C 237.891 22.401,246.209 24.562,253.677 28.153 C 255.729 29.141,258.227 29.877,262.004 30.610 C 267.744 31.723,269.187 32.345,273.282 35.475 C 275.168 36.917,276.327 37.419,279.972 38.375 C 284.636 39.599,285.658 40.158,289.242 43.444 C 290.475 44.575,292.185 45.727,293.042 46.005 C 296.103 46.997,299.446 48.952,302.379 51.464 C 304.118 52.953,306.032 54.214,306.979 54.492 C 308.145 54.836,309.493 55.872,311.785 58.185 C 313.537 59.953,316.057 62.131,317.385 63.025 C 318.849 64.010,320.430 65.548,321.400 66.929 C 322.280 68.183,323.630 69.585,324.400 70.044 C 326.406 71.241,328.328 73.125,329.659 75.200 C 330.295 76.190,331.832 77.720,333.076 78.600 C 334.347 79.500,335.875 81.053,336.568 82.150 C 337.246 83.222,339.425 85.742,341.412 87.750 C 343.973 90.339,345.181 91.885,345.565 93.069 C 345.864 93.987,347.257 96.115,348.662 97.798 C 351.390 101.067,352.658 103.283,353.808 106.794 C 354.252 108.148,355.087 109.543,355.989 110.436 C 359.658 114.069,360.384 115.314,361.564 119.996 C 362.190 122.480,363.066 124.937,363.536 125.531 C 367.383 130.391,367.994 131.732,369.398 138.392 C 370.205 142.219,371.063 145.249,371.525 145.904 C 374.339 149.884,377.572 162.272,377.606 169.200 C 377.620 171.950,377.984 176.990,378.415 180.400 C 380.770 199.010,380.819 202.110,378.968 215.263 C 378.384 219.407,377.851 225.385,377.742 229.000 C 377.466 238.112,375.341 246.704,371.553 254.018 C 370.819 255.434,370.118 257.819,369.613 260.618 C 368.442 267.101,367.851 268.692,365.409 271.927 C 362.528 275.743,362.550 275.697,361.442 280.384 C 360.446 284.597,359.997 285.362,356.013 289.635 C 355.099 290.615,354.131 292.216,353.752 293.374 C 352.683 296.642,351.371 298.953,348.993 301.756 C 347.766 303.202,346.318 305.390,345.775 306.619 C 345.081 308.187,343.746 309.903,341.293 312.375 C 339.372 314.313,337.246 316.776,336.568 317.849 C 335.874 318.948,334.349 320.498,333.076 321.400 C 331.832 322.280,330.295 323.810,329.659 324.800 C 328.328 326.875,326.406 328.759,324.400 329.956 C 323.630 330.415,322.280 331.817,321.400 333.071 C 320.420 334.466,318.857 335.981,317.368 336.979 C 316.031 337.875,313.477 340.081,311.693 341.882 C 309.366 344.231,308.019 345.272,306.925 345.566 C 306.049 345.802,304.045 347.104,302.216 348.624 C 298.819 351.449,296.718 352.658,293.206 353.808 C 291.852 354.252,290.457 355.087,289.564 355.989 C 285.931 359.658,284.686 360.384,280.004 361.564 C 277.520 362.190,275.063 363.066,274.469 363.536 C 269.696 367.314,268.178 368.025,262.300 369.231 C 258.415 370.028,255.708 370.836,253.800 371.767 C 246.083 375.533,238.053 377.457,228.800 377.757 C 224.940 377.882,219.448 378.383,215.573 378.964 C 203.464 380.779,197.489 380.714,182.200 378.600 C 179.780 378.265,174.740 377.884,171.000 377.753 C 161.891 377.434,150.130 374.513,145.892 371.517 C 145.222 371.044,142.467 370.264,138.926 369.545 C 131.931 368.125,131.376 367.910,127.891 365.270 C 124.349 362.587,124.389 362.606,119.986 361.593 C 115.834 360.637,114.470 359.876,111.147 356.657 C 109.579 355.138,108.291 354.298,106.763 353.798 C 103.284 352.658,101.059 351.384,97.798 348.662 C 96.115 347.257,93.988 345.860,93.071 345.557 C 91.910 345.174,90.438 344.033,88.233 341.807 C 86.490 340.047,83.969 337.875,82.632 336.979 C 81.167 335.997,79.564 334.451,78.600 333.090 C 77.583 331.653,76.111 330.259,74.561 329.263 C 72.790 328.125,71.721 327.053,70.658 325.348 C 69.708 323.826,68.394 322.437,66.922 321.400 C 65.559 320.440,64.000 318.835,63.025 317.390 C 62.131 316.065,59.958 313.543,58.196 311.786 C 55.979 309.576,54.822 308.078,54.442 306.926 C 54.140 306.011,52.744 303.886,51.341 302.206 C 48.630 298.957,47.717 297.411,46.347 293.751 C 45.877 292.494,44.831 290.730,44.023 289.832 C 40.001 285.364,39.573 284.612,38.410 279.972 C 37.781 277.460,36.925 275.055,36.447 274.458 C 32.412 269.415,31.912 268.328,30.568 261.657 C 29.897 258.330,29.069 255.599,28.146 253.672 C 24.552 246.171,22.401 237.881,22.398 231.522 C 22.396 227.537,21.245 216.295,20.419 212.200 C 19.592 208.102,19.459 196.558,20.177 191.200 C 21.537 181.045,22.400 172.167,22.400 168.333 C 22.400 162.350,24.883 152.938,28.188 146.393 C 29.094 144.598,29.832 142.131,30.556 138.472 C 31.828 132.041,32.046 131.504,35.137 127.203 C 37.326 124.158,37.666 123.413,38.427 120.003 C 39.363 115.805,40.061 114.521,43.292 111.046 C 44.677 109.556,45.745 107.941,46.201 106.646 C 47.440 103.127,48.698 100.961,51.338 97.798 C 52.743 96.115,54.136 93.987,54.433 93.069 C 54.814 91.896,55.930 90.453,58.187 88.215 C 59.954 86.463,62.131 83.943,63.025 82.615 C 64.004 81.161,65.554 79.564,66.922 78.600 C 68.385 77.569,69.708 76.174,70.641 74.679 C 71.672 73.025,72.824 71.864,74.649 70.639 C 76.227 69.581,77.788 68.091,78.713 66.761 C 79.569 65.530,81.048 64.083,82.149 63.400 C 83.212 62.740,85.744 60.550,87.776 58.533 C 90.475 55.853,91.891 54.750,93.035 54.434 C 93.896 54.196,95.410 53.280,96.400 52.398 C 99.404 49.721,102.144 47.996,105.525 46.653 C 107.875 45.719,109.435 44.753,111.297 43.078 C 114.997 39.748,115.261 39.606,119.939 38.421 C 123.706 37.467,124.571 37.072,127.400 35.018 C 131.442 32.082,131.816 31.931,138.687 30.463 C 142.205 29.712,145.028 28.868,146.087 28.252 C 151.672 25.004,160.331 22.826,169.400 22.390 C 173.360 22.199,179.300 21.656,182.600 21.184 C 185.900 20.711,189.860 20.174,191.400 19.991 C 194.941 19.570,209.546 19.865,212.200 20.411 M191.200 31.866 C 160.697 33.501,160.935 33.484,158.487 34.211 C 157.372 34.542,155.694 35.453,154.758 36.235 C 151.544 38.920,148.678 39.913,141.047 40.984 C 134.631 41.885,133.720 42.245,131.253 44.855 C 128.920 47.325,127.504 48.023,122.874 48.989 C 118.440 49.915,116.141 51.040,115.176 52.757 C 114.134 54.611,112.293 55.868,109.218 56.825 C 105.657 57.934,104.926 58.417,103.490 60.611 C 102.361 62.337,101.677 62.850,98.197 64.581 C 94.828 66.257,93.698 67.086,90.992 69.866 C 88.692 72.229,87.147 73.444,85.540 74.155 C 83.640 74.995,83.159 75.433,82.392 77.017 C 81.244 79.388,79.395 81.241,77.037 82.382 C 75.488 83.132,75.017 83.646,74.145 85.539 C 73.414 87.124,72.162 88.697,69.959 90.800 C 67.295 93.342,66.490 94.441,64.692 98.000 C 62.845 101.656,62.316 102.367,60.604 103.490 C 58.396 104.940,57.909 105.653,56.979 108.800 C 56.027 112.019,54.905 113.789,52.904 115.226 C 50.859 116.694,50.015 118.376,48.981 123.037 C 47.960 127.645,47.140 129.266,44.854 131.193 C 42.444 133.225,41.877 134.664,40.991 140.987 C 39.914 148.683,38.813 151.854,36.227 154.718 C 33.639 157.585,33.635 157.617,31.960 190.162 C 31.473 199.614,31.585 203.836,32.995 229.200 C 33.628 240.582,34.038 242.613,36.235 245.242 C 38.945 248.485,39.921 251.335,41.020 259.216 C 41.798 264.792,42.754 267.182,44.766 268.577 C 46.761 269.959,47.811 271.950,48.801 276.233 C 50.121 281.943,50.679 283.085,52.973 284.780 C 55.101 286.352,56.329 288.432,57.226 291.985 C 57.674 293.758,59.292 295.668,61.763 297.340 C 62.452 297.806,63.534 299.499,64.683 301.911 C 66.247 305.190,66.988 306.207,69.836 308.979 C 72.240 311.319,73.441 312.846,74.165 314.483 C 75.016 316.407,75.431 316.865,76.919 317.523 C 79.147 318.509,81.486 320.840,82.463 323.050 C 83.108 324.508,83.605 324.952,85.712 325.959 C 87.926 327.015,92.000 330.447,92.000 331.254 C 92.000 331.758,95.408 333.949,98.786 335.617 C 100.524 336.475,102.273 337.647,102.673 338.222 C 105.105 341.715,105.570 342.044,110.000 343.399 C 112.594 344.192,114.564 345.583,115.410 347.219 C 116.221 348.788,118.934 350.098,123.556 351.154 C 128.017 352.173,130.023 353.213,131.423 355.234 C 132.818 357.246,135.208 358.202,140.784 358.980 C 148.680 360.081,151.550 361.037,154.625 363.585 C 156.986 365.542,159.490 366.371,163.800 366.622 C 165.560 366.725,172.130 367.113,178.400 367.484 C 192.764 368.335,207.490 368.332,221.600 367.475 C 227.650 367.108,234.040 366.719,235.800 366.612 C 240.071 366.353,243.017 365.500,244.762 364.019 C 248.019 361.254,251.425 360.067,259.216 358.980 C 264.792 358.202,267.182 357.246,268.577 355.234 C 269.963 353.234,271.959 352.185,276.233 351.211 C 281.309 350.055,283.374 349.010,284.969 346.790 C 286.365 344.847,288.631 343.493,291.338 342.985 C 293.356 342.607,295.099 341.348,296.579 339.200 C 297.602 337.716,298.520 337.052,301.804 335.420 C 305.166 333.750,306.292 332.924,309.003 330.139 C 311.307 327.772,312.852 326.556,314.460 325.845 C 316.360 325.005,316.841 324.567,317.608 322.983 C 318.759 320.606,320.606 318.759,322.983 317.608 C 324.567 316.841,325.005 316.360,325.845 314.460 C 326.558 312.849,327.774 311.305,330.164 308.979 C 333.012 306.207,333.753 305.190,335.317 301.911 C 336.466 299.499,337.548 297.806,338.237 297.340 C 340.708 295.668,342.326 293.758,342.774 291.985 C 343.674 288.423,344.898 286.353,347.041 284.770 C 349.393 283.032,350.000 281.803,351.184 276.378 C 352.123 272.072,353.210 269.979,355.234 268.577 C 357.246 267.182,358.202 264.792,358.980 259.216 C 360.080 251.330,361.168 248.167,363.773 245.282 C 366.362 242.414,366.444 241.726,368.030 209.493 C 368.512 199.703,368.455 197.542,367.011 170.800 C 366.379 159.091,366.004 157.238,363.756 154.718 C 361.160 151.807,360.077 148.646,358.980 140.784 C 358.202 135.208,357.246 132.818,355.234 131.423 C 353.176 129.997,352.209 128.078,351.027 123.074 C 349.764 117.730,349.301 116.836,346.915 115.119 C 344.910 113.678,343.664 111.541,342.774 108.015 C 342.327 106.244,340.706 104.329,338.249 102.669 C 337.580 102.217,336.455 100.463,335.298 98.069 C 333.738 94.842,332.916 93.702,330.345 91.200 C 328.261 89.171,326.864 87.393,326.029 85.707 C 325.033 83.693,324.469 83.051,323.098 82.364 C 320.780 81.203,318.916 79.367,317.759 77.103 C 316.950 75.521,316.376 75.001,314.295 73.965 C 312.588 73.115,310.916 71.789,309.000 69.767 C 306.658 67.294,305.513 66.464,302.000 64.690 C 298.337 62.841,297.634 62.318,296.504 60.596 C 295.167 58.559,293.628 57.515,291.200 56.999 C 288.579 56.442,286.097 54.885,284.781 52.973 C 283.326 50.858,281.713 50.034,276.963 48.981 C 272.355 47.960,270.734 47.140,268.807 44.854 C 266.775 42.444,265.336 41.877,259.013 40.991 C 251.324 39.914,248.464 38.927,245.242 36.235 C 242.143 33.646,241.300 33.542,210.973 32.013 C 203.547 31.639,196.428 31.586,191.200 31.866 M83.012 113.965 C 92.031 115.271,94.418 117.827,96.655 128.580 C 97.650 133.360,98.399 133.886,103.301 133.241 C 105.718 132.924,310.237 132.507,324.669 132.791 C 325.632 132.810,327.745 135.034,328.653 136.984 L 329.592 139.000 329.587 196.000 C 329.582 259.340,329.773 254.646,327.075 257.538 C 325.271 259.471,327.238 259.412,272.200 259.200 C 216.054 258.984,212.663 259.073,214.108 260.719 C 217.029 264.049,216.590 278.461,213.454 282.174 L 212.124 283.749 210.291 282.675 C 208.161 281.426,207.119 280.209,205.894 277.538 C 204.560 274.630,202.528 274.513,200.382 277.222 C 197.475 280.893,189.256 284.956,186.956 283.859 C 184.667 282.768,182.914 280.862,181.757 278.205 C 180.426 275.150,180.798 275.320,175.878 275.520 L 171.955 275.679 171.028 277.776 C 169.957 280.197,167.862 282.446,165.605 283.597 L 164.031 284.400 161.716 283.544 C 159.222 282.622,154.128 279.238,152.234 277.245 C 149.532 274.402,147.340 274.676,145.523 278.084 C 144.388 280.213,140.992 283.636,140.064 283.586 C 139.919 283.578,138.051 283.341,135.913 283.059 C 132.756 282.642,131.479 282.642,129.113 283.057 C 123.458 284.049,122.238 283.419,120.425 278.575 C 119.058 274.923,120.106 260.431,121.739 260.388 C 121.993 260.381,121.856 260.176,121.436 259.932 C 120.992 259.675,116.964 259.352,111.836 259.164 C 106.976 258.986,102.353 258.722,101.562 258.578 C 100.173 258.324,97.986 259.051,97.430 259.951 C 97.309 260.148,96.920 262.174,96.566 264.454 C 95.870 268.940,94.787 271.392,92.978 272.578 C 91.046 273.844,84.483 271.904,82.674 269.533 L 81.643 268.181 82.018 258.590 C 82.225 253.316,82.507 247.818,82.646 246.373 L 82.898 243.746 80.949 242.509 C 79.877 241.828,77.776 240.698,76.280 239.997 C 74.242 239.042,73.290 238.315,72.480 237.091 L 71.400 235.458 71.256 211.872 C 71.097 185.708,71.150 185.046,73.689 181.541 L 74.888 179.886 74.388 176.043 C 74.091 173.751,73.527 171.474,72.992 170.400 C 69.907 164.206,71.329 157.556,76.540 153.819 C 77.893 152.849,79.857 151.179,80.904 150.109 L 82.809 148.164 82.473 144.182 C 82.288 141.992,82.277 138.940,82.448 137.400 C 83.120 131.355,82.507 130.388,76.600 128.168 C 71.814 126.369,71.100 124.827,72.431 119.159 C 73.729 113.629,75.315 112.851,83.012 113.965 M306.721 150.177 C 305.715 151.842,304.400 155.149,304.400 156.013 C 304.400 156.225,305.051 157.118,305.847 157.999 C 307.488 159.816,308.146 159.925,311.538 158.949 C 318.560 156.929,318.539 155.296,311.428 150.471 C 307.750 147.975,308.040 147.993,306.721 150.177 M106.412 151.700 C 103.840 156.183,105.400 159.850,109.651 159.318 C 114.949 158.656,116.510 158.207,117.330 157.108 L 118.144 156.016 117.200 153.999 L 116.255 151.983 112.444 150.791 C 107.580 149.271,107.826 149.234,106.412 151.700 M240.225 153.395 C 238.022 154.301,236.009 155.757,236.422 156.145 C 236.520 156.236,238.670 157.659,241.200 159.307 C 247.548 163.441,247.346 163.129,248.546 170.682 C 249.100 174.166,250.904 178.776,251.830 179.071 C 252.329 179.230,255.297 174.707,256.545 171.887 C 257.098 170.635,258.034 168.978,258.623 168.205 L 259.695 166.800 264.015 166.800 C 269.064 166.800,269.424 166.701,270.265 165.075 C 271.106 163.448,269.195 161.472,266.366 161.043 C 263.773 160.651,261.547 159.239,260.483 157.310 C 258.361 153.462,245.914 151.057,240.225 153.395 M223.114 154.605 C 220.207 155.154,219.905 155.313,217.914 157.340 C 216.519 158.760,215.120 159.738,213.800 160.217 C 210.891 161.273,209.812 162.147,208.251 164.712 C 207.470 165.996,206.276 167.331,205.530 167.755 C 201.508 170.039,200.492 172.205,201.945 175.400 C 203.057 177.844,203.745 178.259,205.021 177.255 C 208.756 174.317,219.545 173.781,226.383 176.194 C 227.930 176.740,227.991 176.726,228.914 175.630 C 231.288 172.808,231.157 171.229,228.377 169.150 C 223.787 165.717,223.024 164.190,224.457 161.301 L 225.400 159.400 229.800 157.941 C 232.220 157.139,234.560 156.363,235.000 156.217 C 238.231 155.143,227.771 153.725,223.114 154.605 M147.245 162.022 C 146.484 163.273,146.421 163.921,146.506 169.595 C 146.630 177.793,146.277 178.563,142.000 179.419 L 139.800 179.860 139.542 183.430 C 139.401 185.394,139.256 191.410,139.222 196.800 C 139.187 202.190,139.023 207.822,138.857 209.315 C 138.506 212.475,138.676 212.731,141.477 213.254 C 145.723 214.047,146.538 215.634,146.444 222.935 C 146.379 228.004,147.164 232.800,148.058 232.800 C 150.017 232.800,150.733 226.617,149.796 217.800 C 148.983 210.146,148.969 181.503,149.774 174.400 C 150.983 163.750,150.990 164.009,149.443 162.227 L 148.077 160.654 147.245 162.022 M162.631 162.768 C 161.367 164.087,161.366 163.147,162.644 176.000 C 163.385 183.449,163.251 209.955,162.416 221.200 L 161.896 228.200 162.899 230.400 L 163.901 232.600 164.416 231.400 C 164.728 230.675,165.030 227.509,165.181 223.400 C 165.488 215.021,166.216 213.600,170.207 213.600 C 170.775 213.600,171.794 213.313,172.472 212.963 L 173.704 212.326 173.382 208.863 C 173.205 206.958,173.046 199.678,173.029 192.685 C 172.996 178.688,173.096 179.218,170.487 179.206 C 166.043 179.185,165.079 177.349,165.250 169.226 C 165.408 161.784,164.862 160.439,162.631 162.768 M274.480 170.411 C 273.439 171.381,273.354 171.748,272.860 177.400 C 272.241 184.486,267.877 190.665,260.900 194.333 C 257.934 195.892,257.852 196.202,260.138 197.214 C 263.325 198.624,267.077 199.214,274.792 199.519 C 282.928 199.840,283.102 199.890,283.580 202.063 C 283.830 203.201,283.921 202.924,284.196 200.200 C 284.634 195.845,283.825 191.050,281.666 185.200 C 281.220 183.990,280.277 180.509,279.572 177.465 C 277.908 170.284,276.585 168.450,274.480 170.411 M195.168 186.190 C 193.575 189.770,194.534 203.606,196.590 206.714 C 198.051 208.920,200.318 214.864,200.837 217.846 C 201.380 220.965,203.270 223.486,204.719 223.026 C 206.295 222.526,206.699 220.994,206.889 214.800 C 207.168 205.708,207.923 204.234,214.801 199.363 C 219.877 195.768,219.835 195.930,216.179 194.038 L 213.400 192.600 207.600 192.600 C 200.103 192.600,198.812 191.974,197.624 187.764 C 197.382 186.904,196.929 185.750,196.618 185.200 L 196.054 184.200 195.168 186.190 M274.989 212.425 C 272.889 217.081,265.100 218.606,255.781 216.185 L 251.875 215.170 250.747 216.251 C 247.985 218.897,248.717 221.925,252.714 224.386 C 258.233 227.785,256.876 230.992,248.737 233.779 L 244.125 235.359 239.763 233.414 C 232.784 230.303,232.032 229.388,231.207 223.000 C 230.552 217.931,228.903 212.388,228.054 212.405 C 227.914 212.408,227.369 213.083,226.841 213.905 C 221.674 221.963,219.476 223.888,214.400 224.802 C 207.383 226.064,207.074 228.906,213.680 231.431 C 215.272 232.039,216.887 232.985,217.515 233.678 C 218.112 234.336,219.068 235.384,219.639 236.007 C 222.865 239.524,235.745 240.653,241.991 237.966 C 243.892 237.148,244.030 237.143,246.821 237.778 C 252.314 239.027,258.465 237.764,260.614 234.945 C 261.309 234.035,262.854 233.012,265.326 231.825 C 269.273 229.931,270.255 229.102,271.516 226.600 C 272.438 224.771,273.635 223.579,275.496 222.638 C 278.763 220.988,279.183 210.800,275.984 210.800 C 275.840 210.800,275.392 211.531,274.989 212.425 M105.973 234.027 C 104.169 235.831,104.168 235.940,105.941 239.561 C 107.477 242.697,107.653 242.744,112.281 241.277 L 116.255 240.017 117.200 238.000 L 118.144 235.984 117.330 234.892 C 116.504 233.786,115.044 233.369,109.493 232.658 C 107.667 232.424,107.518 232.482,105.973 234.027 M305.821 234.029 C 304.092 235.944,304.125 236.651,306.144 240.750 C 307.755 244.021,307.826 244.034,311.264 241.736 C 318.512 236.891,318.570 235.074,311.538 233.051 C 308.136 232.072,307.490 232.182,305.821 234.029 " stroke="none" fill="#f8bd33" fill-rule="evenodd"></path><path id="path4" d="M191.600 8.660 C 189.070 8.950,186.245 9.370,185.323 9.594 C 184.400 9.817,183.261 10.000,182.790 10.000 C 182.319 10.000,180.734 10.523,179.267 11.161 C 176.237 12.480,173.333 12.912,161.400 13.819 C 147.979 14.839,145.713 15.424,142.527 18.699 L 140.854 20.418 134.127 21.545 C 126.363 22.847,124.406 23.592,121.471 26.368 C 119.056 28.652,117.401 29.456,113.400 30.288 C 109.157 31.169,107.154 32.198,104.758 34.724 C 103.031 36.545,102.077 37.183,99.980 37.916 C 96.032 39.295,95.019 40.061,93.840 42.553 C 92.898 44.543,92.615 44.817,91.095 45.210 C 88.166 45.966,87.846 46.081,85.880 47.068 C 84.825 47.599,82.713 49.259,81.188 50.757 C 79.664 52.254,77.350 54.048,76.047 54.743 C 73.666 56.012,71.479 58.090,71.028 59.513 C 70.727 60.460,68.245 62.464,66.492 63.174 C 65.058 63.755,63.416 65.488,62.971 66.892 C 62.565 68.172,60.417 70.741,59.513 71.028 C 58.090 71.479,56.012 73.666,54.743 76.047 C 54.048 77.350,52.254 79.664,50.757 81.188 C 47.922 84.074,46.407 86.556,45.617 89.607 C 45.361 90.593,45.056 91.731,44.938 92.137 C 44.820 92.542,44.065 93.144,43.261 93.476 C 40.367 94.670,39.472 95.688,38.200 99.237 C 37.188 102.060,36.641 102.938,34.701 104.856 C 32.165 107.364,31.123 109.400,30.272 113.511 C 29.496 117.262,28.322 119.742,26.613 121.243 C 23.690 123.809,22.966 125.727,21.419 135.003 C 20.456 140.780,20.377 141.022,19.061 142.191 C 15.497 145.355,14.765 148.278,13.599 164.000 C 12.923 173.105,12.418 176.406,11.333 178.800 C 7.356 187.576,7.272 213.101,11.195 220.790 C 12.141 222.644,12.987 228.017,13.590 236.000 C 14.784 251.793,15.499 254.646,19.055 257.805 C 20.133 258.763,20.485 259.458,20.775 261.205 C 22.886 273.921,23.586 276.050,26.636 279.014 C 28.583 280.906,29.205 282.211,30.158 286.400 C 31.099 290.535,32.684 293.534,34.704 295.000 C 36.105 296.017,36.585 296.778,37.857 299.997 C 39.524 304.215,40.366 305.271,42.941 306.375 C 44.673 307.117,45.600 308.519,45.600 310.396 C 45.600 311.965,48.263 316.290,50.776 318.805 C 52.219 320.248,53.986 322.530,54.703 323.876 C 56.006 326.324,58.075 328.516,59.513 328.972 C 60.417 329.259,62.565 331.828,62.971 333.108 C 63.416 334.512,65.058 336.245,66.492 336.826 C 68.245 337.536,70.727 339.540,71.028 340.487 C 71.479 341.910,73.666 343.988,76.047 345.257 C 77.350 345.952,79.662 347.744,81.185 349.240 C 84.289 352.289,85.712 353.127,89.896 354.371 C 92.764 355.223,92.801 355.252,93.820 357.406 C 94.939 359.771,96.127 360.813,98.600 361.596 C 101.528 362.523,104.305 364.074,104.846 365.086 C 105.872 367.002,109.955 369.201,113.600 369.800 C 117.080 370.372,119.311 371.485,121.062 373.524 C 123.246 376.068,125.471 376.897,134.158 378.404 L 141.000 379.591 142.328 381.189 C 144.846 384.219,148.666 385.221,161.400 386.193 C 171.744 386.982,177.200 387.780,179.187 388.793 C 186.670 392.611,213.687 392.485,221.204 388.598 C 222.614 387.869,231.736 386.600,238.400 386.206 C 249.433 385.554,254.637 384.222,257.446 381.332 L 259.157 379.571 265.878 378.388 C 274.664 376.841,276.102 376.314,278.647 373.703 C 280.937 371.353,282.517 370.561,286.600 369.713 C 290.129 368.981,293.839 367.035,294.950 365.335 C 295.830 363.989,298.477 362.476,301.546 361.564 C 303.642 360.942,305.192 359.481,306.333 357.053 C 307.151 355.312,307.283 355.223,310.489 354.238 C 314.078 353.136,316.335 351.714,319.445 348.598 C 320.544 347.496,322.541 346.010,323.882 345.295 C 326.325 343.993,328.517 341.923,328.972 340.487 C 329.273 339.540,331.755 337.536,333.508 336.826 C 334.942 336.245,336.584 334.512,337.029 333.108 C 337.435 331.828,339.583 329.259,340.487 328.972 C 341.906 328.522,343.987 326.337,345.245 323.976 C 345.933 322.685,347.797 320.290,349.387 318.653 C 352.298 315.655,353.591 313.316,354.774 308.905 C 355.178 307.401,355.478 307.089,357.444 306.126 C 359.861 304.943,360.819 303.851,361.596 301.400 C 362.568 298.330,364.034 295.801,365.335 294.950 C 367.035 293.839,368.981 290.129,369.713 286.600 C 370.544 282.600,371.347 280.944,373.632 278.529 C 376.367 275.637,376.946 274.111,378.355 266.079 L 379.569 259.158 381.331 257.447 C 384.248 254.612,385.279 250.935,386.001 240.800 C 386.660 231.543,387.607 224.343,388.404 222.518 C 392.465 213.223,392.650 186.906,388.709 179.048 C 387.813 177.261,386.695 169.140,386.018 159.510 C 385.284 149.048,384.376 145.767,381.375 142.723 L 379.538 140.859 378.395 134.168 C 376.928 125.581,376.079 123.281,373.566 121.083 C 371.415 119.201,370.734 117.849,369.773 113.553 C 368.894 109.623,367.041 106.171,365.133 104.908 C 363.862 104.067,363.401 103.326,362.168 100.143 C 360.433 95.666,360.035 95.145,357.321 93.805 C 355.253 92.785,355.237 92.761,354.232 89.469 C 353.102 85.761,350.674 81.683,349.102 80.849 C 348.080 80.308,345.884 77.394,344.663 74.959 C 343.968 73.573,341.659 71.400,340.487 71.028 C 339.583 70.741,337.435 68.172,337.029 66.892 C 336.584 65.488,334.942 63.755,333.508 63.174 C 331.755 62.464,329.273 60.460,328.972 59.513 C 328.515 58.071,326.321 56.005,323.865 54.703 C 322.514 53.986,320.326 52.305,319.004 50.967 C 316.120 48.048,313.967 46.754,310.105 45.619 C 307.231 44.775,307.201 44.753,306.116 42.535 C 304.908 40.069,304.257 39.522,301.128 38.343 C 297.515 36.982,295.703 35.940,295.150 34.906 C 294.161 33.059,288.333 30.000,285.803 30.000 C 284.053 30.000,280.670 28.339,279.073 26.697 C 276.050 23.586,273.970 22.895,261.282 20.788 C 259.530 20.497,258.867 20.131,257.449 18.672 C 254.613 15.754,250.949 14.725,240.800 13.995 C 227.417 13.033,222.797 12.397,220.467 11.197 C 217.999 9.925,211.508 8.813,205.227 8.585 C 202.022 8.468,198.680 8.319,197.800 8.253 C 196.920 8.187,194.130 8.370,191.600 8.660 M216.000 15.420 C 218.750 15.740,222.530 16.260,224.400 16.576 C 226.270 16.892,229.690 17.265,232.000 17.404 C 239.786 17.873,244.447 19.007,255.000 23.001 C 258.322 24.258,262.161 25.391,264.436 25.786 C 267.674 26.347,268.797 26.760,271.636 28.433 C 275.749 30.857,279.456 32.623,281.705 33.228 C 284.409 33.956,287.105 35.479,290.662 38.287 C 291.508 38.954,293.991 40.198,296.180 41.050 C 299.579 42.373,300.544 42.967,302.780 45.109 C 304.221 46.489,306.854 48.584,308.630 49.765 C 310.407 50.947,312.927 52.894,314.230 54.093 C 315.534 55.292,317.888 57.117,319.463 58.148 C 321.038 59.180,323.678 61.349,325.331 62.970 C 326.983 64.591,329.126 66.461,330.093 67.127 C 331.060 67.792,332.333 69.063,332.921 69.952 C 333.509 70.841,335.399 73.063,337.120 74.891 C 338.841 76.718,341.163 79.560,342.279 81.207 C 343.395 82.853,344.799 84.650,345.399 85.200 C 346.792 86.478,349.543 90.080,350.897 92.400 C 351.475 93.390,353.162 95.516,354.646 97.124 C 356.906 99.573,357.585 100.662,358.834 103.836 C 359.654 105.921,360.837 108.275,361.462 109.069 C 364.789 113.290,365.588 114.735,367.123 119.302 C 367.741 121.141,369.380 124.616,370.766 127.023 C 373.009 130.919,373.389 131.906,374.225 136.000 C 374.741 138.530,375.818 142.220,376.619 144.200 C 380.496 153.797,382.138 160.375,382.603 168.174 C 382.746 170.580,383.124 174.000,383.442 175.774 C 385.737 188.569,385.740 211.661,383.448 224.600 C 383.136 226.360,382.763 229.600,382.618 231.800 C 382.088 239.843,380.633 245.690,376.671 255.685 C 375.556 258.500,374.634 261.689,374.223 264.154 C 373.508 268.449,373.498 268.472,370.292 273.888 C 369.091 275.917,367.695 278.887,367.190 280.488 C 365.821 284.833,364.596 287.098,361.843 290.379 C 360.615 291.843,359.259 294.646,358.171 297.972 C 357.695 299.427,356.779 300.758,354.917 302.699 C 353.491 304.184,351.338 306.913,350.131 308.763 C 348.924 310.612,346.989 313.132,345.830 314.363 C 344.672 315.593,342.942 317.770,341.986 319.200 C 341.030 320.630,338.877 323.240,337.203 325.000 C 335.528 326.760,333.597 329.022,332.911 330.026 C 332.225 331.030,330.884 332.366,329.932 332.996 C 328.979 333.625,326.760 335.514,325.000 337.194 C 323.240 338.873,320.630 341.030,319.200 341.986 C 317.770 342.942,315.593 344.672,314.363 345.830 C 313.132 346.989,310.612 348.924,308.763 350.131 C 306.913 351.337,304.165 353.497,302.655 354.931 C 300.720 356.768,299.326 357.728,297.929 358.185 C 294.606 359.272,291.827 360.626,290.379 361.865 C 288.210 363.719,285.278 365.509,283.256 366.215 C 278.486 367.878,276.748 368.652,273.400 370.603 C 268.275 373.589,268.512 373.496,264.162 374.234 C 261.897 374.618,258.487 375.584,256.200 376.488 C 245.932 380.548,239.787 382.091,231.845 382.602 C 229.670 382.742,226.340 383.115,224.445 383.432 C 210.112 385.827,190.505 385.829,175.600 383.437 C 173.510 383.102,170.090 382.715,168.000 382.578 C 159.908 382.048,155.110 380.876,145.200 377.011 C 141.707 375.648,138.403 374.668,135.846 374.234 C 131.550 373.506,131.525 373.496,126.112 370.292 C 124.083 369.091,121.113 367.695,119.512 367.190 C 115.200 365.831,113.268 364.771,109.069 361.462 C 108.275 360.837,105.896 359.644,103.782 358.813 C 100.525 357.532,99.485 356.881,96.966 354.550 C 95.332 353.038,93.215 351.350,92.263 350.800 C 90.023 349.506,87.890 347.883,85.400 345.577 C 84.300 344.559,82.230 342.945,80.800 341.992 C 79.370 341.038,76.940 339.057,75.400 337.590 C 73.860 336.123,71.575 334.176,70.321 333.264 C 69.068 332.352,67.457 330.750,66.741 329.703 C 66.025 328.656,64.160 326.450,62.597 324.800 C 61.034 323.150,58.968 320.630,58.006 319.200 C 57.043 317.770,55.105 315.340,53.698 313.800 C 52.291 312.260,50.669 310.190,50.095 309.200 C 48.686 306.775,47.963 305.853,45.045 302.765 C 42.926 300.521,42.366 299.599,41.280 296.565 C 40.399 294.103,39.317 292.086,37.782 290.047 C 35.220 286.643,33.970 284.305,33.051 281.200 C 32.337 278.787,31.118 276.276,28.292 271.400 C 26.730 268.703,26.311 267.508,25.631 263.800 C 25.150 261.175,24.169 257.786,23.200 255.400 C 19.456 246.178,17.884 239.795,17.389 231.800 C 17.239 229.380,16.863 226.066,16.553 224.436 C 14.078 211.424,14.090 188.898,16.578 175.600 C 16.887 173.950,17.258 170.620,17.404 168.200 C 17.891 160.092,19.063 155.265,22.989 145.200 C 24.377 141.644,25.324 138.434,25.765 135.800 C 26.311 132.535,26.736 131.285,28.078 129.000 C 31.270 123.560,31.957 122.169,32.942 119.146 C 34.226 115.204,35.134 113.458,37.582 110.224 C 38.816 108.593,40.156 106.109,41.090 103.721 C 42.415 100.333,42.982 99.445,45.708 96.493 C 47.418 94.642,49.108 92.559,49.463 91.864 C 50.214 90.395,53.506 86.165,54.804 85.000 C 55.295 84.560,56.682 82.706,57.887 80.880 C 59.092 79.053,61.199 76.443,62.570 75.080 C 63.941 73.716,65.812 71.575,66.728 70.321 C 67.644 69.068,69.250 67.455,70.297 66.737 C 71.344 66.018,73.436 64.204,74.947 62.704 C 76.458 61.204,78.978 59.148,80.547 58.135 C 82.116 57.122,84.466 55.307,85.770 54.103 C 87.073 52.898,89.593 50.947,91.370 49.765 C 93.146 48.584,95.779 46.489,97.220 45.109 C 99.438 42.985,100.433 42.368,103.712 41.090 C 106.120 40.151,108.585 38.822,110.230 37.578 C 113.325 35.235,115.751 33.954,118.800 33.051 C 121.213 32.337,123.724 31.118,128.600 28.292 C 131.297 26.730,132.492 26.311,136.200 25.631 C 138.825 25.150,142.214 24.169,144.600 23.200 C 153.835 19.450,160.218 17.871,168.000 17.412 C 170.310 17.275,174.270 16.821,176.800 16.403 C 180.920 15.723,187.386 15.043,193.600 14.637 C 197.683 14.371,210.965 14.835,216.000 15.420 " stroke="none" fill="#fbe3a5" fill-rule="evenodd"></path></g></svg>